<svg width="389" height="172" viewBox="0 0 389 172" fill="none" xmlns="http://www.w3.org/2000/svg">
<path d="M45.1808 136.26C35.4608 136.26 27.2408 133.5 20.5208 127.98C13.8008 122.46 8.70078 114.72 5.22078 104.76C1.74078 94.6799 0.00078176 82.7999 0.00078176 69.1199C0.00078176 55.9199 2.04078 44.3999 6.12078 34.5599C10.2008 24.5999 15.7808 16.9199 22.8608 11.5199C30.0608 5.99989 38.2808 3.23989 47.5208 3.23989C52.2008 3.23989 56.4608 3.71989 60.3008 4.67988C64.1408 5.51988 67.5008 6.65989 70.3808 8.09989C71.9408 8.93989 72.7208 10.1999 72.7208 11.8799L73.2608 39.2399C73.2608 41.2799 72.5408 42.2999 71.1008 42.2999C69.7808 42.2999 68.9408 41.5199 68.5808 39.9599L67.1408 34.5599C64.5008 24.5999 61.5008 17.7599 58.1408 14.0399C54.7808 10.3199 50.1608 8.45989 44.2808 8.45989C35.5208 8.45989 28.2608 13.6799 22.5008 24.1199C16.8608 34.4399 14.0408 49.4399 14.0408 69.1199C14.0408 89.3999 16.9208 104.88 22.6808 115.56C28.5608 126.12 36.0608 131.4 45.1808 131.4C50.1008 131.4 53.8208 130.32 56.3408 128.16C58.8608 126 60.1208 121.98 60.1208 116.1V76.6799C60.1208 74.1599 59.7008 72.4199 58.8608 71.4599C58.1408 70.4999 56.5208 69.8999 54.0008 69.6599L46.9808 68.9399C45.4208 68.8199 44.6408 68.0999 44.6408 66.7799C44.6408 65.4599 45.5408 64.7999 47.3408 64.7999H80.2808C82.0808 64.7999 82.9808 65.5199 82.9808 66.9599C82.9808 68.0399 82.3208 68.6999 81.0008 68.9399L78.3008 69.2999C75.6608 69.6599 74.1008 70.3799 73.6208 71.4599C73.1408 72.5399 72.9008 74.3399 72.9008 76.8599V125.64C72.9008 126.96 72.5408 128.04 71.8208 128.88C71.1008 129.6 69.8408 130.44 68.0408 131.4C65.1608 132.84 61.8608 133.98 58.1408 134.82C54.4208 135.78 50.1008 136.26 45.1808 136.26ZM113.208 136.26C107.088 136.26 101.568 134.22 96.648 130.14C91.848 125.94 88.008 120.24 85.128 113.04C82.248 105.84 80.808 97.7999 80.808 88.9199C80.808 80.0399 82.248 72.0599 85.128 64.9799C88.008 57.8999 91.908 52.2599 96.828 48.0599C101.748 43.8599 107.208 41.7599 113.208 41.7599C119.328 41.7599 124.788 43.8599 129.588 48.0599C134.508 52.2599 138.408 57.8999 141.288 64.9799C144.168 72.0599 145.608 80.0399 145.608 88.9199C145.608 97.7999 144.168 105.84 141.288 113.04C138.528 120.24 134.688 125.94 129.768 130.14C124.848 134.22 119.328 136.26 113.208 136.26ZM113.208 131.76C125.688 131.76 131.928 117.48 131.928 88.9199C131.928 60.4799 125.688 46.2599 113.208 46.2599C100.728 46.2599 94.488 60.4799 94.488 88.9199C94.488 117.48 100.728 131.76 113.208 131.76ZM143.745 134.64C142.305 134.64 141.585 133.98 141.585 132.66C141.585 131.46 142.245 130.74 143.565 130.5L146.085 130.14C148.605 129.78 150.465 129.06 151.665 127.98C152.865 126.9 153.465 125.1 153.465 122.58V19.4399C153.465 17.2799 153.105 15.7799 152.385 14.9399C151.785 14.0999 150.645 13.6199 148.965 13.4999L144.825 12.9599C143.505 12.7199 142.845 11.9999 142.845 10.7999C142.845 9.59989 143.505 8.87989 144.825 8.63988C148.185 7.91989 151.065 7.07989 153.465 6.11988C155.865 5.15988 157.845 4.19988 159.405 3.23989C161.325 2.03989 162.765 1.43989 163.725 1.43989C165.045 1.43989 165.705 2.39989 165.705 4.31989V122.58C165.705 125.1 166.065 126.9 166.785 127.98C167.625 128.94 169.305 129.6 171.825 129.96L175.965 130.5C177.285 130.74 177.945 131.46 177.945 132.66C177.945 133.98 177.225 134.64 175.785 134.64H143.745ZM202.275 136.26C196.995 136.26 192.255 134.46 188.055 130.86C183.975 127.14 180.795 122.04 178.515 115.56C176.235 108.96 175.095 101.34 175.095 92.6999C175.095 82.6199 176.655 73.7999 179.775 66.2399C182.895 58.5599 187.215 52.5599 192.735 48.2399C198.255 43.9199 204.495 41.7599 211.455 41.7599C213.135 41.7599 214.815 41.9399 216.495 42.2999C218.175 42.5399 219.795 43.0199 221.355 43.7399C223.275 44.6999 224.235 44.2799 224.235 42.4799V19.4399C224.235 17.2799 223.875 15.7799 223.155 14.9399C222.555 14.0999 221.415 13.6199 219.735 13.4999L215.055 12.9599C213.735 12.7199 213.075 11.9999 213.075 10.7999C213.075 9.59989 213.735 8.87989 215.055 8.63988C218.895 7.91989 221.955 7.07989 224.235 6.11988C226.635 5.15988 228.615 4.19988 230.175 3.23989C232.095 2.03989 233.535 1.43989 234.495 1.43989C235.815 1.43989 236.475 2.39989 236.475 4.31989V117.54C236.475 122.58 237.735 125.1 240.255 125.1C241.815 125.1 243.255 124.08 244.575 122.04C245.895 119.88 246.555 116.28 246.555 111.24C246.555 109.32 247.335 108.36 248.895 108.36C250.335 108.36 251.055 109.38 251.055 111.42C251.055 120.18 249.555 126.54 246.555 130.5C243.555 134.34 240.135 136.26 236.295 136.26C232.815 136.26 230.175 135.12 228.375 132.84C226.575 130.44 225.375 127.62 224.775 124.38C224.655 123.42 224.235 122.94 223.515 122.94C222.795 122.82 222.135 123.24 221.535 124.2C218.175 128.88 215.115 132.06 212.355 133.74C209.595 135.42 206.235 136.26 202.275 136.26ZM206.235 127.98C209.355 127.98 212.235 126.96 214.875 124.92C217.635 122.76 219.855 119.88 221.535 116.28C223.335 112.68 224.235 108.66 224.235 104.22V63.7199C224.235 58.3199 222.975 54.0599 220.455 50.9399C218.055 47.8199 214.875 46.2599 210.915 46.2599C204.195 46.2599 198.735 50.2199 194.535 58.1399C190.455 65.9399 188.415 76.6199 188.415 90.1799C188.415 102.54 189.975 111.96 193.095 118.44C196.335 124.8 200.715 127.98 206.235 127.98ZM262.481 25.7399C259.961 25.7399 257.801 24.8399 256.001 23.0399C254.321 21.2399 253.481 18.9599 253.481 16.1999C253.481 13.4399 254.321 11.2199 256.001 9.53988C257.801 7.73988 259.961 6.83989 262.481 6.83989C265.001 6.83989 267.101 7.73988 268.781 9.53988C270.461 11.2199 271.301 13.4399 271.301 16.1999C271.301 18.9599 270.461 21.2399 268.781 23.0399C267.101 24.8399 265.001 25.7399 262.481 25.7399ZM247.361 134.64C245.561 134.64 244.661 133.98 244.661 132.66C244.661 131.58 245.441 130.86 247.001 130.5L249.161 130.14C252.161 129.66 254.081 128.94 254.921 127.98C255.761 126.9 256.181 125.1 256.181 122.58V62.0999C256.181 59.9399 255.821 58.4999 255.101 57.7799C254.501 56.9399 253.361 56.3999 251.681 56.1599L247.901 55.6199C246.341 55.4999 245.561 54.8399 245.561 53.6399C245.561 52.6799 246.521 52.0199 248.441 51.6599C252.161 51.0599 255.161 50.0999 257.441 48.7799C259.721 47.4599 261.941 45.8399 264.101 43.9199C265.181 42.8399 266.081 42.2999 266.801 42.2999C267.881 42.2999 268.421 43.0199 268.421 44.4599V122.58C268.421 125.1 268.781 126.9 269.501 127.98C270.221 129.06 271.601 129.72 273.641 129.96L278.141 130.5C279.461 130.74 280.121 131.4 280.121 132.48C280.121 133.92 279.221 134.64 277.421 134.64H247.361ZM287.339 122.58V52.1999C287.339 49.3199 285.899 47.8799 283.019 47.8799H278.879C277.439 47.8799 276.719 47.2799 276.719 46.0799C276.719 44.8799 277.439 44.2199 278.879 44.0999C284.519 43.4999 287.339 41.0399 287.339 36.7199V35.6399C287.339 29.3999 288.239 23.5799 290.039 18.1799C291.959 12.7799 294.659 8.39989 298.139 5.03989C301.739 1.67989 306.119 -0.000112057 311.279 -0.000112057C316.079 -0.000112057 320.099 1.37989 323.339 4.13989C326.579 6.89989 328.199 10.1999 328.199 14.0399C328.199 16.3199 327.599 18.0599 326.399 19.2599C325.319 20.3399 323.819 20.8799 321.899 20.8799C319.499 20.8799 317.759 20.0999 316.679 18.5399C315.719 16.9799 314.939 15.2399 314.339 13.3199C313.739 11.2799 312.959 9.47988 311.999 7.91988C311.159 6.35989 309.599 5.57989 307.319 5.57989C304.919 5.57989 302.999 6.95989 301.559 9.71989C300.239 12.3599 299.579 17.3999 299.579 24.8399V40.6799C299.579 42.1199 300.299 42.8399 301.739 42.8399H317.219C319.019 42.8399 319.919 43.6799 319.919 45.3599C319.919 47.0399 319.019 47.8799 317.219 47.8799H301.739C300.299 47.8799 299.579 48.5999 299.579 50.0399V122.58C299.579 125.1 299.939 126.84 300.659 127.8C301.499 128.76 303.179 129.36 305.699 129.6L315.239 130.5C316.559 130.74 317.219 131.4 317.219 132.48C317.219 133.92 316.319 134.64 314.519 134.64H277.079C275.279 134.64 274.379 133.98 274.379 132.66C274.379 131.34 275.159 130.62 276.719 130.5L281.219 130.14C283.739 129.9 285.359 129.24 286.079 128.16C286.919 126.96 287.339 125.1 287.339 122.58ZM321.979 171.54C318.739 171.54 316.159 170.4 314.239 168.12C312.319 165.96 311.359 163.44 311.359 160.56C311.359 158.28 312.019 156.36 313.339 154.8C314.659 153.24 316.459 152.46 318.739 152.46C320.659 152.46 322.039 152.88 322.879 153.72C323.719 154.56 324.319 155.52 324.679 156.6C325.039 157.68 325.399 158.64 325.759 159.48C326.119 160.32 326.839 160.74 327.919 160.74C329.239 160.74 330.439 159.78 331.519 157.86C332.599 156.06 334.099 152.16 336.019 146.16C337.219 142.56 337.939 139.44 338.179 136.8C338.539 134.16 338.479 131.34 337.999 128.34C337.639 125.34 336.739 121.68 335.299 117.36L315.679 54.8999C314.839 52.0199 313.999 50.1599 313.159 49.3199C312.439 48.4799 311.239 47.8799 309.559 47.5199L306.859 46.9799C305.299 46.6199 304.519 45.8399 304.519 44.6399C304.519 43.4399 305.359 42.8399 307.039 42.8399H336.739C338.419 42.8399 339.259 43.4399 339.259 44.6399C339.259 45.9599 338.479 46.7399 336.919 46.9799L334.039 47.3399C331.159 47.6999 329.299 48.4199 328.459 49.4999C327.739 50.4599 327.799 52.2599 328.639 54.8999L344.479 107.64C344.839 108.84 345.379 109.44 346.099 109.44C346.939 109.44 347.539 108.84 347.899 107.64L363.199 58.1399C364.159 54.8999 364.399 52.4999 363.919 50.9399C363.559 49.2599 361.879 48.1799 358.879 47.6999L355.099 46.9799C353.539 46.6199 352.759 45.8399 352.759 44.6399C352.759 43.4399 353.599 42.8399 355.279 42.8399H378.139C379.819 42.8399 380.659 43.4999 380.659 44.8199C380.659 46.0199 379.939 46.8599 378.499 47.3399L376.879 47.8799C375.079 48.4799 373.579 49.5599 372.379 51.1199C371.179 52.6799 369.919 55.3799 368.599 59.2199L341.779 142.92C339.139 151.32 336.739 157.56 334.579 161.64C332.539 165.72 330.559 168.36 328.639 169.56C326.719 170.88 324.499 171.54 321.979 171.54ZM379.229 136.26C376.589 136.26 374.309 135.42 372.389 133.74C370.589 131.94 369.689 129.6 369.689 126.72C369.689 123.96 370.589 121.74 372.389 120.06C374.309 118.26 376.589 117.36 379.229 117.36C381.629 117.36 383.789 118.26 385.709 120.06C387.629 121.74 388.589 123.96 388.589 126.72C388.589 129.6 387.629 131.94 385.709 133.74C383.789 135.42 381.629 136.26 379.229 136.26Z" fill="#F5BE09" fill-opacity="0.8"/>
</svg>
