<svg width="20" height="20" viewBox="0 0 20 20" fill="none" xmlns="http://www.w3.org/2000/svg">
<path d="M12.5001 1.66666L12.949 3.65964C13.3298 5.35011 14.65 6.67025 16.3404 7.05105L18.3334 7.49999L16.3404 7.94893C14.65 8.32973 13.3298 9.64986 12.949 11.3403L12.5001 13.3333L12.0511 11.3403C11.6703 9.64986 10.3502 8.32973 8.65973 7.94893L6.66675 7.49999L8.65973 7.05105C10.3502 6.67025 11.6703 5.35012 12.0511 3.65964L12.5001 1.66666Z" fill="white" fill-opacity="0.05" stroke="black" stroke-width="1.5" stroke-linejoin="round"/>
<path d="M5.83341 10L6.15409 11.4236C6.42609 12.631 7.36904 13.574 8.57652 13.846L10.0001 14.1667L8.57652 14.4873C7.36904 14.7593 6.42609 15.7023 6.15409 16.9098L5.83341 18.3333L5.51274 16.9098C5.24074 15.7023 4.29779 14.7593 3.09031 14.4873L1.66675 14.1667L3.0903 13.846C4.29779 13.574 5.24074 12.631 5.51274 11.4236L5.83341 10Z" fill="white" fill-opacity="0.05" stroke="black" stroke-width="1.5" stroke-linejoin="round"/>
</svg>
