<svg width="115" height="24" viewBox="0 0 115 24" fill="none" xmlns="http://www.w3.org/2000/svg">
<g clip-path="url(#clip0_978_71293)">
<path d="M103.11 5.11816L103.169 5.13786C103.936 5.15751 104.605 5.68866 104.801 6.41646L104.821 6.49516L106.808 14.5602H104.172L102.992 9.76051L102.067 12.6915C101.792 13.498 101.044 14.0685 100.179 14.0685C99.3528 14.0685 98.6053 13.5373 98.3298 12.7702L98.2903 12.6915L97.3658 9.76051L96.1858 14.5602H93.5693L95.5363 6.49516L95.5563 6.41646C95.7728 5.64931 96.4608 5.11816 97.2678 5.11816L97.3268 5.13786C98.0543 5.15751 98.6838 5.62961 98.9398 6.29846L98.9593 6.35746L100.179 10.1933L101.398 6.35746L101.418 6.29846C101.674 5.59026 102.343 5.11816 103.11 5.11816Z" fill="#8A8A8A"/>
<path d="M88.7361 14.5602C86.1196 14.5602 84.0151 12.4554 84.0151 9.83921V5.11816H86.5526V9.83921C86.5526 11.0391 87.5361 12.0227 88.7361 12.0227C89.9161 12.0227 90.8996 11.0391 90.8996 9.83921V5.11816H93.4571V9.83921C93.4571 12.4554 91.3326 14.5602 88.7361 14.5602Z" fill="#8A8A8A"/>
<path d="M83.5524 5.11816V7.67541C82.4509 7.67541 81.4869 8.40321 81.1724 9.46546L80.7199 10.9605C80.0904 13.1046 78.1234 14.5602 75.9004 14.5602V12.0227C76.9824 12.0227 77.9659 11.2949 78.2804 10.2326L78.7134 8.73761C79.3429 6.59351 81.3099 5.11816 83.5524 5.11816Z" fill="#8A8A8A"/>
<path d="M73.352 9.20971C73.765 9.20971 74.119 8.87531 74.119 8.44256C74.119 8.02946 73.765 7.67541 73.352 7.67541H70.539V9.20971H73.352ZM73.352 5.11816C75.1815 5.11816 76.6765 6.61316 76.6765 8.44256C76.6765 10.272 75.1815 11.767 73.352 11.767H70.539V14.5602H68.0015V7.41966C68.0015 6.16076 69.0245 5.11816 70.2835 5.11816H73.352Z" fill="#8A8A8A"/>
<path d="M64.2207 5.11816H66.7582V14.5602H64.2207V5.11816Z" fill="#8A8A8A"/>
<path d="M58.4985 7.5572H57.9869C56.7084 7.5572 55.6855 8.5801 55.6855 9.83905C55.6855 11.1177 56.7084 12.1405 57.9869 12.1405H58.4985C59.777 12.1405 60.7999 11.1177 60.7999 9.83905C60.7999 8.5801 59.777 7.5572 58.4985 7.5572ZM57.9869 5H58.4985C61.1735 5 63.3375 7.1638 63.3375 9.83905C63.3375 12.534 61.1735 14.6978 58.4985 14.6978H57.9869C55.3119 14.6978 53.1479 12.534 53.1479 9.83905C53.1479 7.1638 55.3119 5 57.9869 5Z" fill="#8A8A8A"/>
<path d="M52.07 7.67541H47.1131C45.9131 7.67541 44.9296 8.65896 44.9296 9.83921C44.9296 11.0391 45.9131 12.0227 47.1131 12.0227H49.5719C49.8277 11.9833 50.044 11.767 50.044 11.4916V11.2555H46.2082V8.69831H50.477C51.657 8.69831 52.5815 9.64251 52.5815 10.8031V11.4916C52.5815 13.1636 51.2635 14.5209 49.5916 14.5602H47.1131C44.4968 14.5602 42.3921 12.4554 42.3921 9.83921C42.3921 7.24266 44.4968 5.11816 47.1131 5.11816H52.07V7.67541Z" fill="#8A8A8A"/>
<path d="M37.1029 7.5572H36.5915C35.3128 7.5572 34.29 8.5801 34.29 9.83905C34.29 11.1177 35.3128 12.1405 36.5915 12.1405H37.1029C38.3815 12.1405 39.4044 11.1177 39.4044 9.83905C39.4044 8.5801 38.3815 7.5572 37.1029 7.5572ZM36.5915 5H37.1029C39.7781 5 41.9419 7.1638 41.9419 9.83905C41.9419 12.534 39.7781 14.6978 37.1029 14.6978H36.5915C33.9162 14.6978 31.7524 12.534 31.7524 9.83905C31.7524 7.1638 33.9162 5 36.5915 5Z" fill="#8A8A8A"/>
<path d="M23.5 10.7441V5.11816H26.0375V10.7441C26.0375 11.4522 26.608 12.0227 27.3162 12.0227H31.152V14.5602H27.3162C25.2114 14.5602 23.5 12.8489 23.5 10.7441Z" fill="#8A8A8A"/>
<path d="M3.80615 1.25558C5.52055 0.304469 7.47695 -0.121736 9.43165 0.0299989C11.3863 0.18174 13.2532 0.904855 14.8003 2.1091C16.3473 3.3134 17.5061 4.94626 18.1328 6.8039C18.7594 8.66155 18.8266 10.6625 18.3252 12.5578L18.2246 12.9108C17.691 14.6647 16.6847 16.2409 15.313 17.4641L15.0342 17.7034C13.622 18.8723 11.9136 19.6321 10.0948 19.8962L9.73045 19.9426C8.49925 20.0755 7.25835 19.9768 6.0698 19.6584L7.77735 17.9509C8.4492 18.0252 9.1312 18.0154 9.80715 17.9172C11.3593 17.6919 12.8112 17.0152 13.9819 15.9714C15.1525 14.9276 15.9904 13.5623 16.3916 12.0461C16.7676 10.6246 16.7442 9.1288 16.3267 7.72285L16.2378 7.4431C15.7365 5.957 14.8094 4.65065 13.5718 3.68723C12.4116 2.78411 11.0263 2.21958 9.56935 2.05246L9.27685 2.02414C7.7131 1.90275 6.1479 2.24372 4.77637 3.00461C3.86286 3.51144 3.06307 4.19069 2.41601 4.99826H0C0.905215 3.43142 2.21909 2.13608 3.80615 1.25558Z" fill="#8A8A8A"/>
<path d="M5.3574 3.82604C6.50965 3.21021 7.81155 2.92956 9.11525 3.01501C10.4189 3.10049 11.6729 3.54895 12.7349 4.30993C13.7967 5.07089 14.6246 6.11384 15.1245 7.32069C15.6245 8.52764 15.7763 9.85104 15.5635 11.14C15.3506 12.4289 14.7813 13.6329 13.9199 14.6151C13.0585 15.5973 11.9392 16.3189 10.689 16.6981L10.4536 16.7655C9.88895 16.9154 9.3099 16.992 8.73 16.9979L12.0952 13.6332C12.2076 13.5268 12.3159 13.4156 12.4185 13.2987C13.0341 12.5967 13.4411 11.736 13.5933 10.8148C13.7454 9.89359 13.6366 8.94794 13.2793 8.08534C12.922 7.22269 12.3303 6.47734 11.5713 5.93349L11.4278 5.83384C10.7005 5.35024 9.8579 5.06499 8.9844 5.00769L8.81005 4.99889C8.7321 4.99651 8.65395 4.99665 8.57615 4.99792H3.76074C4.23265 4.53595 4.76944 4.14034 5.3574 3.82604Z" fill="#8A8A8A"/>
<path d="M4.25517 15.8266C4.03852 16.0435 4.06848 16.4033 4.31801 16.5814C4.51527 16.7221 4.78535 16.6995 4.95676 16.5282L10.0677 11.4172C10.8508 10.6341 10.8508 9.36434 10.0677 8.58124C9.6917 8.20524 9.1815 7.99394 8.64975 7.99394H3.06258C2.83934 7.99394 2.64254 8.14124 2.57955 8.35539C2.48493 8.67754 2.72646 9.00014 3.06223 9.00039L8.3618 9.00484C9.36365 9.00534 9.86515 10.2166 9.1566 10.9252L4.25517 15.8266ZM6.37095 17.9424C5.50845 18.8048 4.149 18.9178 3.15619 18.2093C1.90039 17.3131 1.75017 15.5034 2.84096 14.4124L6.25015 11.0032L3.0612 11.0005C1.39068 10.9994 0.189537 9.39354 0.660904 7.79089C0.974239 6.72559 1.95213 5.99414 3.06258 5.99414H8.64975C9.71195 5.99414 10.7308 6.41594 11.4819 7.16699C13.0461 8.73119 13.0461 11.2673 11.4819 12.8314L6.37095 17.9424Z" fill="#8A8A8A"/>
</g>
<defs>
<clipPath id="clip0_978_71293">
<rect width="107" height="20" fill="white"/>
</clipPath>
</defs>
</svg>
