<svg width="115" height="24" viewBox="0 0 115 24" fill="none" xmlns="http://www.w3.org/2000/svg">
<g clip-path="url(#clip0_978_71294)">
<path d="M17.4107 2C20.3178 2 22.6744 4.32368 22.6744 7.19008C22.6744 10.0565 20.3178 12.3802 17.4107 12.3802H13.9627L19.6313 17.9695H12.7607L6.38033 11.6784C5.94069 11.2449 5.6686 10.6462 5.6686 9.98474C5.6686 8.66179 6.75628 7.58932 8.098 7.58932H17.4107C17.6343 7.58932 17.8156 7.41058 17.8156 7.19008C17.8156 6.96958 17.6343 6.79085 17.4107 6.79085H8.098C6.30903 6.79085 4.8588 8.22079 4.8588 9.98474C4.8588 10.939 5.28322 11.7952 5.95608 12.3802H5.94697L11.6156 17.9695H8.098C3.6256 17.9695 0 14.3946 0 9.98474C0 5.57489 3.6256 2 8.098 2H17.4107Z" fill="#8A8A8A"/>
<path d="M22.6747 13.1777V17.9686H20.7768L15.918 13.1777H22.6747Z" fill="#8A8A8A"/>
<path d="M110.389 5.31543L110.45 5.33568C111.237 5.35592 111.922 5.90254 112.124 6.65162L112.144 6.73258L114.182 15.0332H111.479L110.268 10.0933L109.32 13.1099C109.038 13.9399 108.271 14.527 107.383 14.527C106.536 14.527 105.77 13.9804 105.487 13.1908L105.447 13.1099L104.499 10.0933L103.288 15.0332H100.605L102.623 6.73258L102.643 6.65162C102.865 5.86205 103.571 5.31543 104.398 5.31543L104.458 5.33568C105.205 5.35592 105.851 5.84181 106.113 6.53013L106.133 6.59089L107.383 10.5387L108.634 6.59089L108.654 6.53013C108.917 5.80132 109.602 5.31543 110.389 5.31543Z" fill="#8A8A8A"/>
<path d="M95.6485 15.0332C92.9657 15.0332 90.8071 12.8669 90.8071 10.1743V5.31543H93.4094V10.1743C93.4094 11.4092 94.418 12.4215 95.6485 12.4215C96.8588 12.4215 97.8674 11.4092 97.8674 10.1743V5.31543H100.49V10.1743C100.49 12.8669 98.3115 15.0332 95.6485 15.0332Z" fill="#8A8A8A"/>
<path d="M90.3337 5.31543V7.9473C89.204 7.9473 88.2157 8.69639 87.893 9.78962L87.4289 11.3283C86.7831 13.535 84.7659 15.0332 82.4863 15.0332V12.4215C83.5962 12.4215 84.6048 11.6725 84.9275 10.5792L85.3712 9.04057C86.0167 6.83383 88.0339 5.31543 90.3337 5.31543Z" fill="#8A8A8A"/>
<path d="M79.8721 9.52644C80.296 9.52644 80.6588 9.1823 80.6588 8.73687C80.6588 8.31172 80.296 7.9473 79.8721 7.9473H76.9875V9.52644H79.8721ZM79.8721 5.31543C81.7484 5.31543 83.2813 6.85407 83.2813 8.73687C83.2813 10.6197 81.7484 12.1583 79.8721 12.1583H76.9875V15.0332H74.3853V7.68412C74.3853 6.38844 75.4343 5.31543 76.7252 5.31543H79.8721Z" fill="#8A8A8A"/>
<path d="M70.5078 5.31543H73.1101V15.0332H70.5078V5.31543Z" fill="#8A8A8A"/>
<path d="M64.6395 7.82525H64.1152C62.8037 7.82525 61.7546 8.878 61.7546 10.1737C61.7546 11.4896 62.8037 12.5424 64.1152 12.5424H64.6395C65.9506 12.5424 66.9997 11.4896 66.9997 10.1737C66.9997 8.878 65.9506 7.82525 64.6395 7.82525ZM64.1152 5.19336H64.6395C67.3832 5.19336 69.602 7.42034 69.602 10.1737C69.602 12.9473 67.3832 15.1743 64.6395 15.1743H64.1152C61.3716 15.1743 59.1523 12.9473 59.1523 10.1737C59.1523 7.42034 61.3716 5.19336 64.1152 5.19336Z" fill="#8A8A8A"/>
<path d="M58.0475 7.9473H52.9639C51.7335 7.9473 50.7249 8.95957 50.7249 10.1743C50.7249 11.4092 51.7335 12.4215 52.9639 12.4215H55.4857C55.748 12.381 55.9699 12.1583 55.9699 11.8749V11.632H52.0363V9.00009H56.4137C57.6239 9.00009 58.5722 9.97183 58.5722 11.1663V11.8749C58.5722 13.5957 57.2207 14.9927 55.5059 15.0332H52.9639C50.2811 15.0332 48.1226 12.8669 48.1226 10.1743C48.1226 7.50191 50.2811 5.31543 52.9639 5.31543H58.0475V7.9473Z" fill="#8A8A8A"/>
<path d="M42.6977 7.82525H42.1729C40.8618 7.82525 39.8127 8.878 39.8127 10.1737C39.8127 11.4896 40.8618 12.5424 42.1729 12.5424H42.6977C44.0087 12.5424 45.0578 11.4896 45.0578 10.1737C45.0578 8.878 44.0087 7.82525 42.6977 7.82525ZM42.1729 5.19336H42.6977C45.4409 5.19336 47.6601 7.42034 47.6601 10.1737C47.6601 12.9473 45.4409 15.1743 42.6977 15.1743H42.1729C39.4295 15.1743 37.2104 12.9473 37.2104 10.1737C37.2104 7.42034 39.4295 5.19336 42.1729 5.19336Z" fill="#8A8A8A"/>
<path d="M28.749 11.1056V5.31543H31.3513V11.1056C31.3513 11.8344 31.9363 12.4215 32.6625 12.4215H36.5963V15.0332H32.6625C30.5041 15.0332 28.749 13.2718 28.749 11.1056Z" fill="#8A8A8A"/>
</g>
<defs>
<clipPath id="clip0_978_71294">
<rect width="114.182" height="16" fill="white" transform="translate(0 2)"/>
</clipPath>
</defs>
</svg>
