<svg width="150" height="35" viewBox="0 0 150 35" fill="none" xmlns="http://www.w3.org/2000/svg">
<g opacity="0.4">
<path fill-rule="evenodd" clip-rule="evenodd" d="M14.9869 6.51851C13.9855 7.21876 13.0799 8.04669 12.2937 8.97868C15.5062 8.68043 19.5876 9.16743 24.3261 11.5367C29.3861 14.0666 33.4607 14.1522 36.2964 13.6052C36.039 12.8261 35.7151 12.0774 35.3314 11.3657C32.0853 11.708 27.9238 11.2549 23.0739 8.82999C19.9942 7.29012 17.2794 6.65581 14.9869 6.51851ZM33.4352 8.66665C30.8717 5.8025 27.1464 4 23 4C21.7823 4 20.6009 4.15547 19.4746 4.44764C21 4.86386 22.6205 5.47279 24.3261 6.32559C27.8769 8.10097 30.9425 8.67261 33.4352 8.66665ZM36.9026 16.3397C33.4768 17.0161 28.7462 16.8772 23.0739 14.0411C17.771 11.3896 13.5503 11.423 10.7037 12.0556C10.5568 12.0882 10.4133 12.1225 10.2733 12.1582C9.90063 12.9687 9.60314 13.8211 9.38969 14.7061C9.61767 14.6452 9.85325 14.5873 10.0963 14.5333C13.5497 13.7659 18.4291 13.7992 24.3261 16.7478C29.6291 19.3992 33.8497 19.3658 36.6963 18.7332C36.7939 18.7116 36.89 18.6892 36.9845 18.6661C36.9948 18.4454 37 18.2233 37 18C37 17.4382 36.967 16.8842 36.9026 16.3397ZM36.5274 21.6206C33.1348 22.2137 28.5419 21.9861 23.0739 19.2522C17.771 16.6007 13.5503 16.6341 10.7037 17.2667C10.0719 17.407 9.50347 17.578 9.00205 17.7586C9.00068 17.8389 9 17.9194 9 18C9 25.732 15.268 32 23 32C29.48 32 34.9317 27.5976 36.5274 21.6206Z" fill="white"/>
<path d="M47 23.8187H56.6248V20.9197H50.4209V10H47V23.8187Z" fill="white"/>
<path d="M62.3272 21.8861C60.9549 21.8861 60.2398 20.6878 60.2398 18.8904C60.2398 17.093 60.9549 15.8754 62.3272 15.8754C63.6994 15.8754 64.4338 17.093 64.4338 18.8904C64.4338 20.6878 63.6994 21.8861 62.3272 21.8861ZM62.3465 24.128C65.5354 24.128 67.6227 21.8668 67.6227 18.8904C67.6227 15.9141 65.5354 13.6528 62.3465 13.6528C59.1769 13.6528 57.0509 15.9141 57.0509 18.8904C57.0509 21.8668 59.1769 24.128 62.3465 24.128Z" fill="white"/>
<path d="M73.1425 27.2397C74.6113 27.2397 75.9062 26.9111 76.7759 26.1381C77.5683 25.423 78.0902 24.3407 78.0902 22.8525V13.9234H75.0752V14.9864H75.0365C74.4567 14.1554 73.5677 13.6335 72.2534 13.6335C69.7989 13.6335 68.0981 15.6822 68.0981 18.5812C68.0981 21.6156 70.1661 23.2777 72.3887 23.2777C73.587 23.2777 74.3407 22.7945 74.9205 22.1374H74.9978V23.1231C74.9978 24.3213 74.4374 25.0171 73.1038 25.0171C72.0602 25.0171 71.5383 24.5726 71.3644 24.0507H68.3107C68.62 26.1187 70.4174 27.2397 73.1425 27.2397ZM73.1231 20.9391C71.9442 20.9391 71.1711 19.9728 71.1711 18.4846C71.1711 16.9771 71.9442 16.0108 73.1231 16.0108C74.4374 16.0108 75.1331 17.1317 75.1331 18.4653C75.1331 19.8568 74.4953 20.9391 73.1231 20.9391Z" fill="white"/>
<path d="M84.2896 21.8861C82.9173 21.8861 82.2023 20.6878 82.2023 18.8904C82.2023 17.093 82.9173 15.8754 84.2896 15.8754C85.6618 15.8754 86.3962 17.093 86.3962 18.8904C86.3962 20.6878 85.6618 21.8861 84.2896 21.8861ZM84.3089 24.128C87.4978 24.128 89.5854 21.8668 89.5854 18.8904C89.5854 15.9141 87.4978 13.6528 84.3089 13.6528C81.1393 13.6528 79.0133 15.9141 79.0133 18.8904C79.0133 21.8668 81.1393 24.128 84.3089 24.128Z" fill="white"/>
<path d="M90.5051 23.8187H93.6554V13.9234H90.5051V23.8187ZM90.5051 12.5512H93.6554V10H90.5051V12.5512Z" fill="white"/>
<path d="M95.022 27.0851H98.1723V22.7945H98.2109C98.8294 23.6256 99.7377 24.1281 101.013 24.1281C103.603 24.1281 105.323 22.0794 105.323 18.8711C105.323 15.8948 103.719 13.6335 101.091 13.6335C99.7377 13.6335 98.7714 14.2327 98.095 15.1217H98.037V13.9234H95.022V27.0851ZM100.202 21.6929C98.8487 21.6929 98.0756 20.5912 98.0756 18.9871C98.0756 17.383 98.7714 16.1654 100.144 16.1654C101.496 16.1654 102.134 17.2863 102.134 18.9871C102.134 20.6685 101.4 21.6929 100.202 21.6929Z" fill="white"/>
<path d="M110.453 24.1281C113.043 24.1281 114.956 23.0071 114.956 20.8425C114.956 18.3107 112.907 17.8661 111.168 17.5762C109.912 17.3443 108.791 17.2477 108.791 16.5519C108.791 15.9334 109.39 15.6435 110.163 15.6435C111.033 15.6435 111.632 15.9141 111.748 16.8032H114.647C114.492 14.8511 112.985 13.6335 110.182 13.6335C107.844 13.6335 105.911 14.7159 105.911 16.8032C105.911 19.1224 107.747 19.5862 109.467 19.8761C110.781 20.1081 111.98 20.2047 111.98 21.0937C111.98 21.7315 111.38 22.0794 110.433 22.0794C109.39 22.0794 108.733 21.5962 108.617 20.6106H105.64C105.737 22.7945 107.554 24.1281 110.453 24.1281Z" fill="white"/>
<path d="M119.234 24.1086C120.607 24.1086 121.476 23.5675 122.191 22.6011H122.249V23.8187H125.264V13.9233H122.114V19.4508C122.114 20.6298 121.457 21.4415 120.375 21.4415C119.37 21.4415 118.887 20.8424 118.887 19.7601V13.9233H115.756V20.4172C115.756 22.6204 116.954 24.1086 119.234 24.1086Z" fill="white"/>
<path d="M126.635 23.8188H129.785V18.272C129.785 17.0931 130.365 16.262 131.351 16.262C132.298 16.262 132.742 16.8805 132.742 17.9434V23.8188H135.893V18.272C135.893 17.0931 136.453 16.262 137.458 16.262C138.405 16.262 138.85 16.8805 138.85 17.9434V23.8188H142V17.383C142 15.1604 140.879 13.6335 138.637 13.6335C137.362 13.6335 136.299 14.1747 135.526 15.373H135.487C134.984 14.31 133.999 13.6335 132.704 13.6335C131.274 13.6335 130.327 14.31 129.708 15.3343H129.65V13.9234H126.635V23.8188Z" fill="white"/>
</g>
</svg>
