<svg width="150" height="35" viewBox="0 0 150 35" fill="none" xmlns="http://www.w3.org/2000/svg">
<g opacity="0.4">
<path d="M27.4191 16.3693C27.0401 16.7506 26.7498 17.2108 26.569 17.717C26.3882 18.2233 26.3213 18.7632 26.373 19.2983L26.355 19.2803C26.4082 19.9102 26.3232 20.544 26.1061 21.1377C25.889 21.7313 25.5451 22.2704 25.0982 22.7174C24.6512 23.1643 24.112 23.5084 23.5183 23.7254C22.9247 23.9425 22.2908 24.0275 21.661 23.9743L21.6791 23.9923C20.9257 23.9222 20.1689 24.0861 19.512 24.4618C18.8552 24.8375 18.3302 25.4066 18.0087 26.0916C17.6872 26.7766 17.5847 27.544 17.7153 28.2894C17.846 29.0347 18.2033 29.7216 18.7386 30.2564C19.2739 30.7912 19.9611 31.1479 20.7065 31.2778C21.452 31.4078 22.2193 31.3046 22.904 30.9825C23.5887 30.6603 24.1573 30.1349 24.5324 29.4777C24.9075 28.8205 25.0708 28.0637 25 27.3103L25.019 27.3283C24.9658 26.6985 25.0507 26.0646 25.2678 25.4709C25.4849 24.8773 25.829 24.3382 26.2759 23.8912C26.7229 23.4443 27.262 23.1002 27.8556 22.8832C28.4493 22.6661 29.0831 22.5811 29.713 22.6343L29.694 22.6163C30.3094 22.6716 30.929 22.5707 31.4951 22.3229C32.0611 22.0751 32.5554 21.6884 32.9322 21.1987C33.309 20.709 33.5563 20.132 33.6507 19.5214C33.7452 18.9107 33.6839 18.2861 33.4727 17.7053C33.2615 17.1246 32.9071 16.6066 32.4424 16.1993C31.9777 15.792 31.4178 15.5086 30.8144 15.3754C30.211 15.2422 29.5837 15.2634 28.9907 15.4371C28.3977 15.6109 27.8582 15.9315 27.4221 16.3693H27.4191Z" fill="white"/>
<path d="M20.0422 21.6353L20.0232 21.6173C20.5585 21.6712 21.0991 21.6055 21.606 21.4249C22.1128 21.2443 22.5732 20.9534 22.9538 20.5731C23.3343 20.1928 23.6257 19.7326 23.8066 19.2259C23.9876 18.7192 24.0537 18.1787 24.0002 17.6433L24.0192 17.6613C23.966 17.0314 24.051 16.3976 24.268 15.8039C24.4851 15.2103 24.8292 14.6712 25.2761 14.2242C25.7231 13.7773 26.2622 13.4332 26.8558 13.2162C27.4495 12.999 28.0833 12.9141 28.7132 12.9673L28.6942 12.9493C29.4477 13.0201 30.2046 12.8566 30.8618 12.4814C31.5191 12.1061 32.0445 11.5372 32.3665 10.8524C32.6885 10.1675 32.7914 9.39997 32.6612 8.65446C32.531 7.90895 32.174 7.22177 31.6388 6.68663C31.1037 6.1515 30.4165 5.79446 29.671 5.66424C28.9255 5.53401 28.158 5.63692 27.4731 5.95894C26.7882 6.28095 26.2194 6.8064 25.8441 7.46361C25.4688 8.12081 25.3054 8.87778 25.3762 9.63126L25.3582 9.61226C25.4115 10.2422 25.3267 10.8761 25.1097 11.4698C24.8927 12.0635 24.5486 12.6027 24.1017 13.0498C23.6547 13.4967 23.1155 13.8408 22.5218 14.0578C21.928 14.2748 21.2941 14.3596 20.6642 14.3063L20.6822 14.3253C20.1469 14.2714 19.6062 14.3371 19.0994 14.5177C18.5926 14.6982 18.1322 14.9892 17.7516 15.3695C17.371 15.7498 17.0797 16.21 16.8987 16.7167C16.7178 17.2234 16.6517 17.7639 16.7052 18.2993L16.6872 18.2813C16.7402 18.9111 16.6551 19.5449 16.438 20.1385C16.2208 20.732 15.8768 21.2711 15.4299 21.718C14.9829 22.1649 14.4439 22.5089 13.8503 22.7261C13.2568 22.9432 12.623 23.0283 11.9932 22.9753L12.0112 22.9933C11.2577 22.9225 10.5007 23.0859 9.84349 23.4612C9.18629 23.8365 8.66084 24.4053 8.33883 25.0902C8.01681 25.7751 7.91389 26.5426 8.04412 27.2881C8.17435 28.0336 8.53139 28.7208 9.06652 29.2559C9.60166 29.7911 10.2888 30.1481 11.0344 30.2783C11.7799 30.4085 12.5474 30.3056 13.2323 29.9836C13.9171 29.6616 14.486 29.1362 14.8613 28.479C15.2366 27.8217 15.4 27.0648 15.3292 26.3113L15.3482 26.3293C15.295 25.6994 15.38 25.0656 15.5971 24.4719C15.8141 23.8783 16.1582 23.3392 16.6051 22.8922C17.0521 22.4453 17.5912 22.1012 18.1848 21.8842C18.7785 21.6671 19.4123 21.5821 20.0422 21.6353Z" fill="white"/>
<path d="M13.3402 19.6289C13.7192 19.2477 14.0094 18.7875 14.1901 18.2812C14.3707 17.7749 14.4373 17.2349 14.3852 16.6999L14.4042 16.7179C14.351 16.0879 14.436 15.4538 14.6532 14.86C14.8704 14.2662 15.2146 13.727 15.6618 13.28C16.109 12.8331 16.6483 12.4891 17.2422 12.2721C17.8361 12.0552 18.4702 11.9705 19.1002 12.0239L19.0812 12.0059C19.8344 12.0765 20.5911 11.913 21.248 11.5378C21.9049 11.1625 22.43 10.5938 22.7519 9.90917C23.0737 9.22451 23.1765 8.45726 23.0463 7.71203C22.9161 6.9668 22.5591 6.27988 22.0242 5.74494C21.4893 5.21 20.8023 4.85308 20.0571 4.72286C19.3119 4.59263 18.5446 4.69545 17.86 5.01727C17.1753 5.33909 16.6066 5.86426 16.2314 6.52116C15.8561 7.17806 15.6926 7.93472 15.7632 8.68794L15.7452 8.66994C15.7984 9.29979 15.7134 9.93366 15.4963 10.5273C15.2792 11.1209 14.9352 11.66 14.4883 12.107C14.0413 12.554 13.5022 12.898 12.9086 13.115C12.3149 13.3321 11.6811 13.4171 11.0512 13.3639L11.0692 13.3819C10.4538 13.3267 9.83437 13.4278 9.26839 13.6757C8.70241 13.9236 8.20816 14.3104 7.83145 14.8002C7.45474 15.2899 7.20776 15.8669 7.11338 16.4775C7.01901 17.0882 7.0803 17.7128 7.29157 18.2934C7.50284 18.8741 7.85727 19.392 8.322 19.7992C8.78673 20.2065 9.34673 20.4898 9.95011 20.623C10.5535 20.7561 11.1807 20.7348 11.7737 20.5611C12.3666 20.3873 12.9061 20.0667 13.3422 19.6289H13.3402Z" fill="white"/>
<path d="M47.1745 20.4176H51.3329V22.8682H44V9.83594H47.1745V20.4176Z" fill="white"/>
<path d="M57.0052 23.0193C55.9904 23.0193 55.0745 22.8027 54.2577 22.3695C53.4533 21.9363 52.8159 21.3175 52.3456 20.5131C51.8877 19.7086 51.6587 18.768 51.6587 17.6912C51.6587 16.6269 51.8938 15.6925 52.3641 14.888C52.8345 14.0712 53.478 13.4462 54.2948 13.013C55.1117 12.5799 56.0275 12.3633 57.0424 12.3633C58.0572 12.3633 58.9731 12.5799 59.7899 13.013C60.6067 13.4462 61.2503 14.0712 61.7206 14.888C62.1909 15.6925 62.4261 16.6269 62.4261 17.6912C62.4261 18.7556 62.1847 19.6962 61.7021 20.5131C61.2318 21.3175 60.582 21.9363 59.7527 22.3695C58.9359 22.8027 58.0201 23.0193 57.0052 23.0193ZM57.0052 20.2717C57.6117 20.2717 58.1253 20.049 58.5461 19.6034C58.9793 19.1578 59.1959 18.5205 59.1959 17.6912C59.1959 16.862 58.9854 16.2247 58.5646 15.7791C58.1562 15.3336 57.6488 15.1108 57.0424 15.1108C56.4236 15.1108 55.9099 15.3336 55.5015 15.7791C55.0931 16.2123 54.8889 16.8496 54.8889 17.6912C54.8889 18.5205 55.0869 19.1578 55.483 19.6034C55.8914 20.049 56.3988 20.2717 57.0052 20.2717Z" fill="white"/>
<path d="M67.4892 12.3633C68.2194 12.3633 68.8568 12.5118 69.4014 12.8088C69.9582 13.1058 70.3853 13.4957 70.6823 13.9783V12.5118H73.8568V22.8521C73.8568 23.8051 73.665 24.6653 73.2813 25.4326C72.91 26.2123 72.3345 26.8311 71.5548 27.289C70.7875 27.747 69.8283 27.976 68.6774 27.976C67.1427 27.976 65.8988 27.6109 64.9458 26.8807C63.9929 26.1628 63.4483 25.1851 63.3122 23.9474H66.4496C66.5486 24.3435 66.7838 24.6529 67.1551 24.8757C67.5263 25.1108 67.9843 25.2284 68.5288 25.2284C69.1848 25.2284 69.7045 25.0365 70.0882 24.6529C70.4843 24.2816 70.6823 23.6814 70.6823 22.8521V21.3856C70.3729 21.8682 69.9459 22.2643 69.4014 22.5737C68.8568 22.8707 68.2194 23.0193 67.4892 23.0193C66.6353 23.0193 65.8617 22.8027 65.1686 22.3695C64.4756 21.9239 63.9248 21.2989 63.5165 20.4945C63.1204 19.6777 62.9224 18.7371 62.9224 17.6727C62.9224 16.6083 63.1204 15.6739 63.5165 14.8695C63.9248 14.065 64.4756 13.4462 65.1686 13.013C65.8617 12.5799 66.6353 12.3633 67.4892 12.3633ZM70.6823 17.6912C70.6823 16.8992 70.4595 16.2741 70.014 15.8163C69.5808 15.3584 69.0486 15.1294 68.4174 15.1294C67.7862 15.1294 67.2479 15.3584 66.8023 15.8163C66.3691 16.2618 66.1526 16.8806 66.1526 17.6727C66.1526 18.4648 66.3691 19.096 66.8023 19.5663C67.2479 20.0242 67.7862 20.2532 68.4174 20.2532C69.0486 20.2532 69.5808 20.0242 70.014 19.5663C70.4595 19.1083 70.6823 18.4834 70.6823 17.6912Z" fill="white"/>
<path d="M80.3119 23.0193C79.297 23.0193 78.3812 22.8027 77.5644 22.3695C76.7599 21.9363 76.1225 21.3175 75.6522 20.5131C75.1943 19.7086 74.9653 18.768 74.9653 17.6912C74.9653 16.6269 75.2004 15.6925 75.6708 14.888C76.1411 14.0712 76.7846 13.4462 77.6014 13.013C78.4183 12.5799 79.3342 12.3633 80.349 12.3633C81.3639 12.3633 82.2797 12.5799 83.0965 13.013C83.9134 13.4462 84.5569 14.0712 85.0272 14.888C85.4975 15.6925 85.7327 16.6269 85.7327 17.6912C85.7327 18.7556 85.4914 19.6962 85.0087 20.5131C84.5384 21.3175 83.8887 21.9363 83.0594 22.3695C82.2426 22.8027 81.3267 23.0193 80.3119 23.0193ZM80.3119 20.2717C80.9183 20.2717 81.4319 20.049 81.8528 19.6034C82.2859 19.1578 82.5025 18.5205 82.5025 17.6912C82.5025 16.862 82.292 16.2247 81.8713 15.7791C81.4628 15.3336 80.9554 15.1108 80.349 15.1108C79.7302 15.1108 79.2166 15.3336 78.8081 15.7791C78.3998 16.2123 78.1955 16.8496 78.1955 17.6912C78.1955 18.5205 78.3936 19.1578 78.7896 19.6034C79.1981 20.049 79.7055 20.2717 80.3119 20.2717Z" fill="white"/>
<path d="M88.4563 11.4344C87.8994 11.4344 87.4415 11.2735 87.0826 10.9517C86.736 10.6176 86.5627 10.2092 86.5627 9.7265C86.5627 9.23144 86.736 8.82302 87.0826 8.50124C87.4415 8.16708 87.8994 8 88.4563 8C89.0009 8 89.4464 8.16708 89.7929 8.50124C90.1518 8.82302 90.3313 9.23144 90.3313 9.7265C90.3313 10.2092 90.1518 10.6176 89.7929 10.9517C89.4464 11.2735 89.0009 11.4344 88.4563 11.4344ZM90.0342 12.5112V22.8701H86.8598V12.5112H90.0342Z" fill="white"/>
<path d="M94.9521 13.9783C95.2614 13.4957 95.6884 13.1058 96.2332 12.8088C96.7781 12.5118 97.4155 12.3633 98.1455 12.3633C98.9996 12.3633 99.7728 12.5799 100.466 13.013C101.159 13.4462 101.704 14.065 102.1 14.8695C102.508 15.6739 102.713 16.6083 102.713 17.6727C102.713 18.7371 102.508 19.6777 102.1 20.4945C101.704 21.2989 101.159 21.9239 100.466 22.3695C99.7728 22.8027 98.9996 23.0193 98.1455 23.0193C97.4272 23.0193 96.7907 22.8707 96.2332 22.5737C95.6884 22.2766 95.2614 21.893 94.9521 21.4227V27.8088H91.7778V12.5118H94.9521V13.9783ZM99.4824 17.6727C99.4824 16.8806 99.2594 16.2618 98.8135 15.8163C98.3802 15.3584 97.8425 15.1294 97.1988 15.1294C96.5677 15.1294 96.0292 15.3584 95.5832 15.8163C95.1508 16.2741 94.9341 16.8992 94.9341 17.6912C94.9341 18.4834 95.1508 19.1083 95.5832 19.5663C96.0292 20.0242 96.5677 20.2532 97.1988 20.2532C97.83 20.2532 98.3685 20.0242 98.8135 19.5663C99.2594 19.096 99.4824 18.4648 99.4824 17.6727Z" fill="white"/>
<path d="M108.035 23.0193C107.131 23.0193 106.327 22.8645 105.621 22.5552C104.916 22.2457 104.359 21.825 103.951 21.2927C103.542 20.7482 103.313 20.1418 103.264 19.4734H106.401C106.438 19.8323 106.605 20.1231 106.902 20.3459C107.2 20.5687 107.565 20.6801 107.998 20.6801C108.394 20.6801 108.697 20.6058 108.907 20.4573C109.13 20.2965 109.241 20.0922 109.241 19.8447C109.241 19.5477 109.087 19.3311 108.778 19.195C108.468 19.0464 107.967 18.8856 107.273 18.7123C106.531 18.539 105.912 18.3596 105.417 18.1739C104.922 17.976 104.495 17.6727 104.137 17.2643C103.777 16.8435 103.598 16.2803 103.598 15.575C103.598 14.9809 103.759 14.4425 104.081 13.9598C104.414 13.4648 104.897 13.0749 105.528 12.7902C106.172 12.5056 106.934 12.3633 107.812 12.3633C109.111 12.3633 110.132 12.6851 110.875 13.3286C111.63 13.9722 112.064 14.8261 112.175 15.8905H109.241C109.192 15.5316 109.031 15.247 108.759 15.0365C108.499 14.8261 108.153 14.7209 107.719 14.7209C107.348 14.7209 107.063 14.7952 106.865 14.9437C106.667 15.0798 106.569 15.2717 106.569 15.5192C106.569 15.8163 106.723 16.039 107.032 16.1876C107.354 16.3361 107.849 16.4846 108.518 16.633C109.285 16.8311 109.909 17.0292 110.392 17.2271C110.875 17.4128 111.296 17.7221 111.654 18.1554C112.026 18.5762 112.218 19.1454 112.231 19.8633C112.231 20.4697 112.057 21.0143 111.71 21.497C111.377 21.9673 110.888 22.3386 110.244 22.6108C109.613 22.8831 108.876 23.0193 108.035 23.0193Z" fill="white"/>
<path d="M123.845 12.5117V22.8706H120.67V21.4598C120.349 21.9177 119.909 22.289 119.352 22.5736C118.808 22.8459 118.202 22.982 117.533 22.982C116.741 22.982 116.041 22.8088 115.435 22.4622C114.828 22.1033 114.358 21.5897 114.025 20.9214C113.69 20.2531 113.523 19.4672 113.523 18.5637V12.5117H116.679V18.1367C116.679 18.8298 116.858 19.3681 117.217 19.7518C117.576 20.1355 118.059 20.3273 118.666 20.3273C119.284 20.3273 119.773 20.1355 120.132 19.7518C120.491 19.3681 120.67 18.8298 120.67 18.1367V12.5117H123.845Z" fill="white"/>
<path d="M138.786 12.3984C140.073 12.3984 141.094 12.7883 141.849 13.568C142.616 14.3477 143 15.4306 143 16.8167V22.8688H139.844V17.2438C139.844 16.5754 139.665 16.0618 139.306 15.7029C138.959 15.3316 138.477 15.1459 137.857 15.1459C137.239 15.1459 136.75 15.3316 136.391 15.7029C136.045 16.0618 135.871 16.5754 135.871 17.2438V22.8688H132.715V17.2438C132.715 16.5754 132.536 16.0618 132.177 15.7029C131.83 15.3316 131.347 15.1459 130.729 15.1459C130.11 15.1459 129.621 15.3316 129.263 15.7029C128.916 16.0618 128.743 16.5754 128.743 17.2438V22.8688H125.568V12.5098H128.743V13.8093C129.065 13.3762 129.486 13.0358 130.005 12.7883C130.525 12.5284 131.113 12.3984 131.768 12.3984C132.549 12.3984 133.242 12.5655 133.848 12.8997C134.466 13.2338 134.949 13.7103 135.296 14.3291C135.655 13.7598 136.144 13.2957 136.762 12.9368C137.381 12.5779 138.056 12.3984 138.786 12.3984Z" fill="white"/>
</g>
</svg>
