<svg width="150" height="35" viewBox="0 0 150 35" fill="none" xmlns="http://www.w3.org/2000/svg">
<g opacity="0.4">
<path d="M27.6791 7.11602C30.6292 4.14029 35.6257 4.15215 37.0211 8.1181C37.2943 8.89457 37.5127 9.69296 37.6733 10.5076C38.3293 13.8339 37.9926 17.2816 36.7059 20.4148C35.4193 23.548 33.2403 26.226 30.4447 28.1102C27.649 29.9943 24.3622 31 21 31C17.6377 31 14.3509 29.9943 11.5553 28.1102C8.75964 26.226 6.58073 23.548 5.29403 20.4147C4.00734 17.2816 3.67074 13.8339 4.32664 10.5076C4.48728 9.69296 4.70571 8.89456 4.97898 8.1181C6.37435 4.15215 11.3708 4.14029 14.321 7.11602L18.875 11.7095C19.3101 12.1483 19.2651 12.8721 19.1451 13.4807C19.0722 13.8507 19.1096 14.2343 19.2528 14.5829C19.3959 14.9314 19.6383 15.2294 19.9493 15.4389C20.2603 15.6485 20.6259 15.7604 21 15.7604C21.374 15.7604 21.7396 15.6485 22.0506 15.4389C22.3617 15.2294 22.6041 14.9314 22.7472 14.5829C22.8904 14.2343 22.9278 13.8507 22.8548 13.4807C22.7348 12.8721 22.6899 12.1483 23.125 11.7095L27.6791 7.11602Z" fill="white"/>
<path d="M48 23.8462H57.0076V21.2812H50.7467V9.30469H48V23.8462Z" fill="white"/>
<path d="M62.4204 24.1487C63.511 24.1487 64.4704 23.9063 65.2984 23.4216C66.1332 22.9302 66.7828 22.2536 67.2474 21.3919C67.7186 20.5234 67.9542 19.5237 67.9542 18.3928C67.9542 17.2685 67.7219 16.2755 67.2575 15.4137C66.7929 14.5453 66.1432 13.8653 65.3085 13.3739C64.4804 12.8824 63.5178 12.6367 62.4204 12.6367C61.3432 12.6367 60.3906 12.8791 59.5626 13.3638C58.7346 13.8485 58.0849 14.5251 57.6136 15.3936C57.1424 16.2552 56.9067 17.255 56.9067 18.3928C56.9067 19.517 57.1356 20.5134 57.5935 21.3818C58.0579 22.2435 58.7043 22.9201 59.5323 23.4115C60.3604 23.903 61.3231 24.1487 62.4204 24.1487ZM62.4204 21.5838C61.5654 21.5838 60.9158 21.2977 60.4715 20.7254C60.0338 20.1465 59.8151 19.3689 59.8151 18.3928C59.8151 17.4435 60.0237 16.676 60.4412 16.0903C60.8652 15.4979 61.525 15.2016 62.4204 15.2016C63.2889 15.2016 63.9419 15.4912 64.3794 16.0701C64.8238 16.6491 65.0459 17.4233 65.0459 18.3928C65.0459 19.3285 64.8272 20.0959 64.3895 20.6951C63.9587 21.2875 63.3023 21.5838 62.4204 21.5838Z" fill="white"/>
<path d="M73.3863 24.1487C73.898 24.1487 74.3692 24.0881 74.8001 23.9669C75.2377 23.8458 75.6349 23.6741 75.9917 23.4519V24.5526C76.0052 24.9566 75.9007 25.2932 75.6786 25.5624C75.4632 25.8385 75.1737 26.0438 74.8102 26.1785C74.4466 26.3199 74.0595 26.3905 73.6489 26.3905C73.2651 26.3905 72.9083 26.3064 72.5785 26.1381C72.2553 25.9698 72.0062 25.7241 71.8311 25.4009L69.2865 26.6329C69.7038 27.3397 70.2996 27.9086 71.0738 28.3395C71.848 28.777 72.6996 28.9959 73.6287 28.9959C74.4298 28.9959 75.1737 28.8881 75.8604 28.6727C76.5471 28.464 77.126 28.1443 77.5973 27.7134C78.0752 27.2825 78.4018 26.7339 78.5768 26.0674C78.6374 25.8317 78.6778 25.5928 78.698 25.3504C78.7249 25.1148 78.7384 24.8623 78.7384 24.593V12.9397H76.335V13.5456C75.9647 13.2561 75.5439 13.0339 75.0727 12.8791C74.6082 12.7175 74.0932 12.6367 73.5277 12.6367C72.4842 12.6367 71.5753 12.8859 70.8012 13.384C70.027 13.8822 69.4244 14.5655 68.9936 15.434C68.5694 16.2956 68.3574 17.2819 68.3574 18.3928C68.3574 19.4833 68.5661 20.4628 68.9835 21.3313C69.4076 22.1997 69.9966 22.8864 70.7506 23.3914C71.5046 23.8962 72.3832 24.1487 73.3863 24.1487ZM73.8306 21.7049C73.2382 21.7049 72.7535 21.5568 72.3765 21.2606C71.9995 20.9644 71.7201 20.5672 71.5384 20.069C71.3566 19.5641 71.2657 19.0054 71.2657 18.3928C71.2657 17.7868 71.3599 17.2348 71.5484 16.7366C71.737 16.2317 72.0264 15.8312 72.4169 15.5349C72.814 15.232 73.319 15.0805 73.9316 15.0805C74.7933 15.0805 75.4093 15.3868 75.7796 15.9994C76.1499 16.6053 76.335 17.4031 76.335 18.3928C76.335 19.3823 76.1465 20.1834 75.7695 20.7961C75.3992 21.402 74.753 21.7049 73.8306 21.7049Z" fill="white"/>
<path d="M85.2622 24.1487C86.3528 24.1487 87.3122 23.9063 88.1402 23.4216C88.9748 22.9302 89.6246 22.2536 90.0888 21.3919C90.5601 20.5234 90.7957 19.5237 90.7957 18.3928C90.7957 17.2685 90.564 16.2755 90.0991 15.4137C89.6349 14.5453 88.9851 13.8653 88.1503 13.3739C87.3222 12.8824 86.3595 12.6367 85.2622 12.6367C84.185 12.6367 83.2324 12.8791 82.4044 13.3638C81.5764 13.8485 80.9267 14.5251 80.4554 15.3936C79.9842 16.2552 79.7485 17.255 79.7485 18.3928C79.7485 19.517 79.9774 20.5134 80.4353 21.3818C80.8997 22.2435 81.5461 22.9201 82.3741 23.4115C83.2022 23.903 84.1649 24.1487 85.2622 24.1487ZM85.2622 21.5838C84.4072 21.5838 83.7575 21.2977 83.3132 20.7254C82.8756 20.1465 82.6569 19.3689 82.6569 18.3928C82.6569 17.4435 82.8655 16.676 83.283 16.0903C83.7071 15.4979 84.3668 15.2016 85.2622 15.2016C86.1307 15.2016 86.7837 15.4912 87.2212 16.0701C87.6656 16.6491 87.8877 17.4233 87.8877 18.3928C87.8877 19.3285 87.6689 20.0959 87.2313 20.6951C86.8005 21.2875 86.1441 21.5838 85.2622 21.5838Z" fill="white"/>
<path d="M92.0066 11.4235H94.7535V9H92.0066V11.4235ZM92.0066 23.8444H94.7535V12.9383H92.0066V23.8444Z" fill="white"/>
<path d="M96.5488 28.6929H99.3155V23.4519C99.6726 23.6741 100.066 23.8458 100.497 23.9669C100.935 24.0881 101.409 24.1487 101.921 24.1487C102.924 24.1487 103.803 23.8962 104.557 23.3914C105.311 22.8864 105.896 22.1997 106.314 21.3313C106.738 20.4628 106.95 19.4833 106.95 18.3928C106.95 17.2819 106.735 16.2956 106.304 15.434C105.88 14.5655 105.281 13.8822 104.506 13.384C103.732 12.8859 102.823 12.6367 101.78 12.6367C101.214 12.6367 100.696 12.7175 100.225 12.8791C99.7599 13.0339 99.3425 13.2561 98.9728 13.5456V12.9397H96.5488V28.6929ZM101.477 21.7049C100.561 21.7049 99.9154 21.402 99.5377 20.7961C99.1608 20.1834 98.9728 19.3823 98.9728 18.3928C98.9728 17.4031 99.1576 16.6053 99.5282 15.9994C99.9051 15.3868 100.521 15.0805 101.376 15.0805C101.989 15.0805 102.49 15.232 102.88 15.5349C103.278 15.8312 103.571 16.2317 103.759 16.7366C103.948 17.2348 104.042 17.7868 104.042 18.3928C104.042 19.0054 103.951 19.5641 103.769 20.069C103.587 20.5672 103.308 20.9644 102.931 21.2606C102.554 21.5568 102.07 21.7049 101.477 21.7049Z" fill="white"/>
<path d="M111.926 24.1487C113.353 24.1487 114.471 23.829 115.279 23.1894C116.086 22.5498 116.49 21.6713 116.49 20.5537C116.49 19.7055 116.227 19.0357 115.703 18.5442C115.184 18.0528 114.303 17.6454 113.057 17.3223C112.209 17.1068 111.576 16.9318 111.158 16.7972C110.748 16.6626 110.475 16.5313 110.34 16.4034C110.212 16.2755 110.149 16.1173 110.149 15.9287C110.149 15.6123 110.3 15.37 110.603 15.2016C110.913 15.0334 111.32 14.9661 111.825 14.9997C112.895 15.0805 113.481 15.5383 113.582 16.3731L116.389 15.8681C116.248 14.8786 115.763 14.0943 114.935 13.5153C114.107 12.9296 113.051 12.6367 111.764 12.6367C110.445 12.6367 109.391 12.9464 108.603 13.5657C107.816 14.1851 107.422 15.0199 107.422 16.0701C107.422 16.9049 107.695 17.5646 108.24 18.0494C108.785 18.5274 109.725 18.938 111.057 19.2814C111.845 19.4901 112.424 19.6584 112.794 19.7863C113.171 19.9142 113.414 20.0455 113.521 20.1801C113.629 20.308 113.683 20.4797 113.683 20.6951C113.683 21.0385 113.548 21.3077 113.279 21.503C113.01 21.6914 112.626 21.7857 112.128 21.7857C111.522 21.7857 111.02 21.641 110.623 21.3515C110.233 21.062 109.98 20.6615 109.866 20.1498L107.059 20.5739C107.24 21.7117 107.752 22.5936 108.594 23.2197C109.442 23.839 110.553 24.1487 111.926 24.1487Z" fill="white"/>
<path d="M121.557 24.1668C122.345 24.1668 123.032 24.0355 123.618 23.7729C124.204 23.5104 124.695 23.1603 125.092 22.7227V23.8436H127.515V12.9375H124.749V18.4714C124.749 19.1446 124.671 19.6898 124.516 20.1073C124.369 20.518 124.177 20.831 123.941 21.0464C123.705 21.2551 123.453 21.3964 123.183 21.4705C122.914 21.5446 122.662 21.5816 122.426 21.5816C121.841 21.5816 121.386 21.4503 121.063 21.1878C120.747 20.9252 120.517 20.5987 120.376 20.2083C120.235 19.8177 120.151 19.4307 120.124 19.0469C120.097 18.6565 120.083 18.3367 120.083 18.0876V12.9375H117.296V19.0571C117.296 19.2388 117.309 19.5283 117.336 19.9255C117.363 20.3227 117.441 20.7637 117.569 21.2484C117.697 21.7263 117.908 22.1875 118.205 22.6318C118.508 23.0761 118.929 23.443 119.468 23.7325C120.005 24.022 120.703 24.1668 121.557 24.1668Z" fill="white"/>
<path d="M129.106 23.8444H131.873V17.2402C131.873 16.6141 132.044 16.1059 132.388 15.7153C132.737 15.3181 133.198 15.1196 133.771 15.1196C134.37 15.1196 134.839 15.3216 135.175 15.7255C135.518 16.1227 135.69 16.6814 135.69 17.4018V23.8444H138.437V17.2402C138.437 16.6141 138.608 16.1059 138.952 15.7153C139.302 15.3181 139.763 15.1196 140.335 15.1196C140.934 15.1196 141.402 15.3216 141.738 15.7255C142.082 16.1227 142.254 16.6814 142.254 17.4018V23.8444H145V16.6747C145 15.4831 144.68 14.5204 144.041 13.7866C143.408 13.0461 142.469 12.6758 141.223 12.6758C140.523 12.6758 139.881 12.8272 139.294 13.1302C138.709 13.4332 138.242 13.8472 137.891 14.3723C137.608 13.8607 137.205 13.45 136.679 13.1403C136.154 12.8307 135.501 12.6758 134.72 12.6758C134.06 12.6758 133.455 12.8071 132.903 13.0696C132.35 13.3254 131.892 13.6789 131.529 14.1299V12.9383H129.106V23.8444Z" fill="white"/>
</g>
</svg>
