<svg width="115" height="24" viewBox="0 0 115 24" fill="none" xmlns="http://www.w3.org/2000/svg">
<g clip-path="url(#clip0_978_71295)">
<path fill-rule="evenodd" clip-rule="evenodd" d="M12.7779 5.84265C11.9556 5.29325 10.9889 5 10 5V0C11.9778 0 13.9112 0.58649 15.5557 1.6853C17.2002 2.78411 18.4819 4.34591 19.2388 6.17315C19.9957 8.0004 20.1937 10.0111 19.8078 11.9509C19.422 13.8907 18.4696 15.6726 17.0711 17.0711C15.6726 18.4696 13.8907 19.422 11.9509 19.8078C10.0111 20.1937 8.0004 19.9957 6.17315 19.2388C4.3459 18.4819 2.78411 17.2002 1.6853 15.5557C0.58649 13.9112 0 11.9778 0 10H5C5 10.9889 5.29325 11.9556 5.84265 12.7779C6.39205 13.6001 7.17295 14.241 8.0866 14.6194C9.0002 14.9979 10.0055 15.0969 10.9754 14.9039C11.9453 14.711 12.8363 14.2348 13.5356 13.5356C14.2348 12.8363 14.711 11.9453 14.9039 10.9754C15.0969 10.0055 14.9979 9.0002 14.6194 8.0866C14.241 7.17295 13.6001 6.39205 12.7779 5.84265Z" fill="#8A8A8A"/>
<path fill-rule="evenodd" clip-rule="evenodd" d="M5 2.64247e-06C5 0.656612 4.87067 1.30679 4.6194 1.91342C4.36812 2.52005 3.99983 3.07124 3.53553 3.53554C3.07124 3.99983 2.52005 4.36813 1.91342 4.6194C1.30679 4.87067 0.656607 5 2.18555e-07 5L0 10C1.31322 10 2.61358 9.74135 3.82684 9.2388C5.0401 8.73625 6.1425 7.99965 7.07105 7.07105C7.99965 6.1425 8.73625 5.0401 9.2388 3.82684C9.74135 2.61358 10 1.31322 10 0L5 2.64247e-06Z" fill="#8A8A8A"/>
<path d="M62.8093 7.22656H60.3833V14.9327H62.8093V7.22656Z" fill="#8A8A8A"/>
<path d="M60.6536 5.7833C60.9071 6.037 61.2241 6.16385 61.6046 6.16385C61.9851 6.16385 62.2971 6.037 62.5401 5.7833C62.7836 5.51905 62.9051 5.2019 62.9051 4.83192C62.9051 4.45138 62.7836 4.13424 62.5401 3.88055C62.2971 3.62684 61.9851 3.5 61.6046 3.5C61.2241 3.5 60.9071 3.62684 60.6536 3.88055C60.4101 4.13424 60.2886 4.45138 60.2886 4.83192C60.2886 5.2019 60.4101 5.51905 60.6536 5.7833Z" fill="#8A8A8A"/>
<path d="M25.5781 14.9328V3.73828H28.0676V12.7447H33.0306V14.9328H25.5781Z" fill="#8A8A8A"/>
<path fill-rule="evenodd" clip-rule="evenodd" d="M37.5136 15.1068C36.7208 15.1068 36.002 14.9324 35.3572 14.5835C34.7229 14.2241 34.2208 13.7379 33.8508 13.1247C33.4809 12.5116 33.2959 11.8245 33.2959 11.0634C33.2959 10.3023 33.4809 9.62051 33.8508 9.01796C34.2208 8.41541 34.7229 7.93971 35.3572 7.59091C35.9914 7.23146 36.7103 7.05176 37.5136 7.05176C38.317 7.05176 39.0358 7.22621 39.6701 7.57501C40.3043 7.92386 40.8065 8.40486 41.1764 9.01796C41.5464 9.62051 41.7314 10.3023 41.7314 11.0634C41.7314 11.8245 41.5464 12.5116 41.1764 13.1247C40.8065 13.7379 40.3043 14.2241 39.6701 14.5835C39.0358 14.9324 38.317 15.1068 37.5136 15.1068ZM37.5136 12.9028C37.8625 12.9028 38.169 12.8288 38.4333 12.6808C38.6976 12.5222 38.8984 12.3055 39.0358 12.0307C39.1838 11.7453 39.2578 11.4228 39.2578 11.0634C39.2578 10.704 39.1838 10.3922 39.0358 10.1279C38.8878 9.85306 38.6817 9.64166 38.4174 9.49366C38.1637 9.33506 37.8625 9.25581 37.5136 9.25581C37.1754 9.25581 36.8741 9.33506 36.6098 9.49366C36.3456 9.64166 36.1394 9.85306 35.9914 10.1279C35.8434 10.4028 35.7695 10.7199 35.7695 11.0793C35.7695 11.4281 35.8434 11.7453 35.9914 12.0307C36.1394 12.3055 36.3456 12.5222 36.6098 12.6808C36.8741 12.8288 37.1754 12.9028 37.5136 12.9028Z" fill="#8A8A8A"/>
<path fill-rule="evenodd" clip-rule="evenodd" d="M43.6528 17.9448C44.2976 18.2408 45.0428 18.3888 45.8885 18.3888C46.713 18.3888 47.4477 18.2249 48.0925 17.8972C48.7374 17.5695 49.2447 17.115 49.6147 16.5336C49.9847 15.9522 50.1699 15.2651 50.1699 14.4723V7.22598H47.7912V7.74373C47.6143 7.59483 47.4134 7.46983 47.1887 7.36868C46.7764 7.16783 46.306 7.06738 45.7775 7.06738C45.0693 7.06738 44.4403 7.23653 43.8906 7.57478C43.3409 7.90248 42.9075 8.35703 42.5904 8.93843C42.2732 9.50928 42.1147 10.1541 42.1147 10.8729C42.1147 11.5812 42.2732 12.226 42.5904 12.8074C42.9075 13.3888 43.3409 13.8486 43.8906 14.1869C44.4403 14.5251 45.0693 14.6943 45.7775 14.6943C46.2955 14.6943 46.7659 14.5939 47.1887 14.393C47.3935 14.2957 47.5785 14.1811 47.7437 14.049V14.5357C47.7437 15.0748 47.5693 15.4924 47.2204 15.7884C46.8822 16.0844 46.4118 16.2323 45.8092 16.2323C45.323 16.2323 44.9054 16.1478 44.5566 15.9786C44.2183 15.8095 43.9117 15.5611 43.6369 15.2334L42.1464 16.7239C42.5164 17.2524 43.0185 17.6594 43.6528 17.9448ZM47.1094 12.3158C46.8663 12.4638 46.5756 12.5378 46.2373 12.5378C45.8991 12.5378 45.6031 12.4638 45.3494 12.3158C45.1062 12.1678 44.916 11.967 44.7786 11.7133C44.6411 11.449 44.5724 11.1689 44.5724 10.8729C44.5724 10.5558 44.6411 10.2704 44.7786 10.0167C44.916 9.76298 45.1115 9.56213 45.3652 9.41413C45.6189 9.26613 45.9096 9.19213 46.2373 9.19213C46.5756 9.19213 46.8663 9.26613 47.1094 9.41413C47.3631 9.56213 47.5534 9.76298 47.6803 10.0167C47.8177 10.2704 47.8864 10.5558 47.8864 10.8729C47.8864 11.19 47.8177 11.4754 47.6803 11.7291C47.5534 11.9723 47.3631 12.1678 47.1094 12.3158Z" fill="#8A8A8A"/>
<path fill-rule="evenodd" clip-rule="evenodd" d="M55.2756 15.1068C54.4826 15.1068 53.7636 14.9324 53.1191 14.5835C52.4846 14.2241 51.9826 13.7379 51.6126 13.1247C51.2426 12.5116 51.0576 11.8245 51.0576 11.0634C51.0576 10.3023 51.2426 9.62051 51.6126 9.01796C51.9826 8.41541 52.4846 7.93971 53.1191 7.59091C53.7531 7.23146 54.4721 7.05176 55.2756 7.05176C56.0786 7.05176 56.7976 7.22621 57.4316 7.57501C58.0661 7.92386 58.5681 8.40486 58.9381 9.01796C59.3081 9.62051 59.4931 10.3023 59.4931 11.0634C59.4931 11.8245 59.3081 12.5116 58.9381 13.1247C58.5681 13.7379 58.0661 14.2241 57.4316 14.5835C56.7976 14.9324 56.0786 15.1068 55.2756 15.1068ZM55.2756 12.9028C55.6241 12.9028 55.9306 12.8288 56.1951 12.6808C56.4591 12.5222 56.6601 12.3055 56.7976 12.0307C56.9456 11.7453 57.0196 11.4228 57.0196 11.0634C57.0196 10.704 56.9456 10.3922 56.7976 10.1279C56.6496 9.85306 56.4436 9.64166 56.1791 9.49366C55.9256 9.33506 55.6241 9.25581 55.2756 9.25581C54.9371 9.25581 54.6356 9.33506 54.3716 9.49366C54.1071 9.64166 53.9011 9.85306 53.7531 10.1279C53.6051 10.4028 53.5311 10.7199 53.5311 11.0793C53.5311 11.4281 53.6051 11.7453 53.7531 12.0307C53.9011 12.3055 54.1071 12.5222 54.3716 12.6808C54.6356 12.8288 54.9371 12.9028 55.2756 12.9028Z" fill="#8A8A8A"/>
<path fill-rule="evenodd" clip-rule="evenodd" d="M68.6407 15.0907C68.1232 15.0907 67.6472 14.9903 67.2137 14.7894C66.9857 14.6837 66.7797 14.5575 66.5957 14.4108V18.1827H64.2012V7.22598H66.6272V7.75783C66.8032 7.61388 66.9987 7.48943 67.2137 7.38453C67.6472 7.17308 68.1232 7.06738 68.6407 7.06738C69.3702 7.06738 70.0152 7.24183 70.5752 7.59068C71.1462 7.93948 71.5902 8.41518 71.9072 9.01773C72.2352 9.62028 72.3987 10.3074 72.3987 11.079C72.3987 11.8507 72.2352 12.5378 71.9072 13.1404C71.5902 13.7429 71.1462 14.2186 70.5752 14.5674C70.0152 14.9163 69.3702 15.0907 68.6407 15.0907ZM68.1972 12.9025C68.5457 12.9025 68.8472 12.8232 69.1007 12.6647C69.3652 12.5061 69.5712 12.2894 69.7192 12.0146C69.8672 11.7397 69.9412 11.4279 69.9412 11.079C69.9412 10.7196 69.8672 10.4025 69.7192 10.1277C69.5712 9.85283 69.3652 9.64143 69.1007 9.49343C68.8472 9.33483 68.5512 9.25558 68.2127 9.25558C67.8747 9.25558 67.5732 9.33483 67.3092 9.49343C67.0552 9.64143 66.8547 9.85283 66.7067 10.1277C66.5587 10.4025 66.4847 10.7196 66.4847 11.079C66.4847 11.4279 66.5532 11.7397 66.6907 12.0146C66.8387 12.2894 67.0447 12.5061 67.3092 12.6647C67.5732 12.8232 67.8692 12.9025 68.1972 12.9025Z" fill="#8A8A8A"/>
<path d="M74.7731 14.9479C75.2171 15.0642 75.6661 15.1223 76.1206 15.1223C77.0826 15.1223 77.8436 14.9004 78.4041 14.4564C78.9746 14.0124 79.2601 13.4152 79.2601 12.6646C79.2601 12.1784 79.1706 11.7872 78.9906 11.4913C78.8111 11.1847 78.5786 10.9416 78.2931 10.7619C78.0076 10.5822 77.7061 10.4394 77.3891 10.3337C77.0721 10.228 76.7706 10.1382 76.4856 10.0642C76.2001 9.99016 75.9676 9.90561 75.7876 9.81046C75.6081 9.71531 75.5181 9.58846 75.5181 9.42991C75.5181 9.28191 75.5871 9.17091 75.7241 9.09691C75.8616 9.01236 76.0676 8.97011 76.3426 8.97011C76.6281 8.97011 76.9186 9.02821 77.2146 9.14451C77.5211 9.26076 77.7961 9.46166 78.0391 9.74706L79.4186 8.35171C79.0701 7.90771 78.6156 7.57471 78.0551 7.35276C77.5056 7.12021 76.9031 7.00391 76.2476 7.00391C75.6241 7.00391 75.0796 7.10961 74.6146 7.32101C74.1491 7.53246 73.7896 7.82316 73.5361 8.19311C73.2826 8.55251 73.1556 8.98066 73.1556 9.47751C73.1556 9.94261 73.2456 10.3285 73.4251 10.635C73.6046 10.931 73.8376 11.1636 74.1226 11.3327C74.4081 11.5018 74.7096 11.634 75.0266 11.7291C75.3436 11.8242 75.6451 11.9141 75.9306 11.9987C76.2156 12.0727 76.4486 12.1625 76.6281 12.2682C76.8186 12.3634 76.9136 12.5061 76.9136 12.6963C76.9136 12.8443 76.8341 12.9606 76.6756 13.0452C76.5276 13.1297 76.3111 13.172 76.0256 13.172C75.6131 13.172 75.2326 13.098 74.8841 12.95C74.5351 12.7915 74.2336 12.5748 73.9801 12.2999L72.6006 13.6953C72.8651 13.9807 73.1821 14.2344 73.5521 14.4564C73.9326 14.6678 74.3396 14.8316 74.7731 14.9479Z" fill="#8A8A8A"/>
<path d="M83.6838 15.1071C82.9758 15.1071 82.3468 14.9644 81.7973 14.679C81.2578 14.383 80.8353 13.9813 80.5288 13.4739C80.2218 12.956 80.0688 12.364 80.0688 11.698V7.22656H82.4949V11.6663C82.4949 11.9306 82.5368 12.1579 82.6218 12.3481C82.7168 12.5384 82.8543 12.6864 83.0338 12.7921C83.2138 12.8978 83.4303 12.9507 83.6838 12.9507C84.0433 12.9507 84.3288 12.8397 84.5403 12.6177C84.7518 12.3851 84.8573 12.068 84.8573 11.6663V7.22656H87.2833V11.6822C87.2833 12.3587 87.1303 12.956 86.8233 13.4739C86.5168 13.9813 86.0943 14.383 85.5548 14.679C85.0158 14.9644 84.3923 15.1071 83.6838 15.1071Z" fill="#8A8A8A"/>
<path d="M90.9153 7.22598H88.4893V14.9321H90.9153V10.4289C90.9153 10.1647 90.9683 9.94268 91.0738 9.76298C91.1903 9.58328 91.3438 9.44583 91.5338 9.35073C91.7243 9.24498 91.9408 9.19213 92.1838 9.19213C92.5328 9.19213 92.8233 9.30313 93.0558 9.52513C93.2993 9.73653 93.4208 10.0378 93.4208 10.4289V14.9321H95.8468V10.4289C95.8468 10.1647 95.8998 9.94268 96.0053 9.76298C96.1218 9.58328 96.2748 9.44583 96.4653 9.35073C96.6553 9.24498 96.8723 9.19213 97.1153 9.19213C97.4643 9.19213 97.7548 9.30313 97.9873 9.52513C98.2303 9.73653 98.3518 10.0378 98.3518 10.4289V14.9321H100.778V10.1594C100.778 9.51458 100.641 8.96488 100.366 8.51033C100.101 8.04518 99.7368 7.69108 99.2718 7.44798C98.8173 7.19423 98.2938 7.06738 97.7018 7.06738C97.0993 7.06738 96.5548 7.19953 96.0688 7.46383C95.7528 7.63218 95.4768 7.84948 95.2403 8.11568C95.0198 7.83723 94.7518 7.60938 94.4353 7.43208C94.0128 7.18898 93.5318 7.06738 92.9928 7.06738C92.4218 7.06738 91.9093 7.18898 91.4548 7.43208C91.2568 7.53323 91.0773 7.65438 90.9153 7.79553V7.22598Z" fill="#8A8A8A"/>
</g>
<defs>
<clipPath id="clip0_978_71295">
<rect width="101" height="20" fill="white"/>
</clipPath>
</defs>
</svg>
