<svg width="115" height="24" viewBox="0 0 115 24" fill="none" xmlns="http://www.w3.org/2000/svg">
<g clip-path="url(#clip0_978_71292)">
<path d="M6.19189 0L11.3822 4.41443C11.6903 4.67651 11.8679 5.0611 11.8679 5.46615V8.7931L6.67766 4.37867C6.36949 4.1166 6.19189 3.732 6.19189 3.32693V0Z" fill="#8A8A8A"/>
<path d="M6.19189 20.0001L11.3822 15.5857C11.6903 15.3236 11.8679 14.939 11.8679 14.534V11.207L6.67766 15.6215C6.36949 15.8835 6.19189 16.2681 6.19189 16.6732V20.0001Z" fill="#8A8A8A"/>
<path d="M0 4.65527L5.11966 8.98535C5.36786 9.1953 5.68222 9.31045 6.00697 9.31045H10.1357L5.0287 4.98137C4.78032 4.77081 4.46553 4.65527 4.14021 4.65527H0Z" fill="#8A8A8A"/>
<path d="M0 15.3447L5.08817 11.0171C5.33683 10.8056 5.65233 10.6895 5.97839 10.6895H10.1481L5.0284 15.0195C4.78019 15.2295 4.46586 15.3447 4.14107 15.3447H0Z" fill="#8A8A8A"/>
<path d="M18.9201 0L13.7299 4.41443C13.4217 4.67651 13.2441 5.0611 13.2441 5.46615V8.7931L18.4344 4.37867C18.7425 4.1166 18.9201 3.732 18.9201 3.32693V0Z" fill="#8A8A8A"/>
<path d="M18.9201 20.0001L13.7299 15.5857C13.4217 15.3236 13.2441 14.939 13.2441 14.534V11.207L18.4344 15.6215C18.7425 15.8835 18.9201 16.2681 18.9201 16.6732V20.0001Z" fill="#8A8A8A"/>
<path d="M25.1123 4.65527L19.9927 8.98535C19.7444 9.1953 19.4301 9.31045 19.1053 9.31045H14.9766L20.0836 4.98137C20.332 4.77081 20.6468 4.65527 20.9721 4.65527H25.1123Z" fill="#8A8A8A"/>
<path d="M25.1119 15.3447L20.0238 11.0171C19.7751 10.8056 19.4596 10.6895 19.1335 10.6895H14.9639L20.0835 15.0195C20.3317 15.2295 20.646 15.3447 20.9708 15.3447H25.1119Z" fill="#8A8A8A"/>
<path d="M66.6854 5.3343C66.3534 5.3343 66.0752 5.2224 65.8502 4.99855C65.6252 4.77471 65.5132 4.49758 65.5132 4.16715C65.5132 3.83673 65.6252 3.5596 65.8502 3.33576C66.0752 3.11192 66.3534 3 66.6854 3C67.0069 3 67.2801 3.11192 67.5046 3.33576C67.7296 3.5596 67.8421 3.83673 67.8421 4.16715C67.8421 4.49758 67.7296 4.77471 67.5046 4.99855C67.2801 5.2224 67.0069 5.3343 66.6854 5.3343Z" fill="#8A8A8A"/>
<path d="M67.5846 6.50098V15.3106H65.7534V6.50098H67.5846Z" fill="#8A8A8A"/>
<path fill-rule="evenodd" clip-rule="evenodd" d="M72.5271 6.77312C71.9917 7.05027 71.5683 7.39137 71.2579 7.79637V6.50132H69.4268V19.4999H71.2579V14.0319C71.5899 14.4369 72.0183 14.778 72.5432 15.0551C73.0675 15.3216 73.6677 15.4548 74.3422 15.4548C75.1131 15.4548 75.8148 15.263 76.4466 14.8792C77.089 14.4849 77.5922 13.9413 77.9563 13.2484C78.3205 12.5449 78.5023 11.7508 78.5023 10.8662C78.5023 9.98147 78.3205 9.19802 77.9563 8.51587C77.5922 7.83367 77.089 7.30607 76.4466 6.93302C75.8148 6.54927 75.1131 6.35742 74.3422 6.35742C73.6677 6.35742 73.0625 6.49602 72.5271 6.77312ZM76.2537 9.29927C76.5109 9.73632 76.639 10.2586 76.639 10.8662C76.639 11.4737 76.5109 12.0067 76.2537 12.465C76.0071 12.9233 75.6752 13.2751 75.2578 13.5202C74.851 13.7547 74.4115 13.872 73.9404 13.872C73.4799 13.872 73.0409 13.7547 72.6235 13.5202C72.2162 13.2857 71.8842 12.9446 71.6276 12.497C71.381 12.0386 71.2579 11.5057 71.2579 10.8981C71.2579 10.2906 71.381 9.76297 71.6276 9.31527C71.8842 8.86762 72.2162 8.52652 72.6235 8.29202C73.0409 8.05752 73.4799 7.94027 73.9404 7.94027C74.4115 7.94027 74.851 8.05752 75.2578 8.29202C75.6752 8.51587 76.0071 8.85162 76.2537 9.29927Z" fill="#8A8A8A"/>
<path d="M82.964 15.4548C82.2679 15.4548 81.6416 15.3322 81.0846 15.0871C80.5387 14.8313 80.1048 14.4902 79.7838 14.0638C79.4624 13.6268 79.2911 13.1418 79.2695 12.6089H81.165C81.1971 12.9819 81.3739 13.2964 81.6954 13.5522C82.0273 13.7974 82.4397 13.9199 82.9319 13.9199C83.4462 13.9199 83.8425 13.824 84.1207 13.6321C84.41 13.4296 84.5546 13.1738 84.5546 12.8647C84.5546 12.5343 84.3939 12.2891 84.0725 12.1292C83.7621 11.9694 83.2639 11.7935 82.5788 11.6016C81.9148 11.4204 81.3739 11.2445 80.9561 11.074C80.5387 10.9035 80.1746 10.6423 79.8642 10.2906C79.5644 9.93882 79.4142 9.47517 79.4142 8.89957C79.4142 8.43057 79.5533 8.00422 79.832 7.62052C80.1103 7.22612 80.5066 6.91702 81.0204 6.69317C81.5452 6.46937 82.1449 6.35742 82.8194 6.35742C83.8264 6.35742 84.635 6.61322 85.2452 7.12487C85.8665 7.62582 86.1985 8.31332 86.2412 9.18737H84.41C84.3778 8.79297 84.2171 8.47857 83.9278 8.24407C83.639 8.00957 83.2478 7.89232 82.7556 7.89232C82.2734 7.89232 81.9038 7.98292 81.6471 8.16412C81.39 8.34532 81.2614 8.58512 81.2614 8.88357C81.2614 9.11807 81.3473 9.31527 81.5186 9.47517C81.6898 9.63507 81.8988 9.76297 82.1449 9.85887C82.3915 9.94417 82.7556 10.0561 83.2372 10.1946C83.8796 10.3652 84.4045 10.5411 84.8113 10.7223C85.2291 10.8928 85.5877 11.1486 85.8876 11.4897C86.1874 11.8308 86.3426 12.2838 86.3537 12.8487C86.3537 13.3497 86.2145 13.7974 85.9358 14.1917C85.6576 14.5861 85.2613 14.8952 84.747 15.1191C84.2437 15.3429 83.6496 15.4548 82.964 15.4548Z" fill="#8A8A8A"/>
<path d="M110.217 6.78912C109.67 6.50132 109.05 6.35742 108.353 6.35742C107.7 6.35742 107.09 6.51732 106.522 6.83707C105.955 7.14617 105.537 7.56722 105.269 8.10017C104.969 7.53522 104.541 7.10357 103.984 6.80512C103.427 6.50667 102.796 6.35742 102.089 6.35742C101.564 6.35742 101.071 6.45867 100.611 6.66122C100.15 6.86372 99.7702 7.14617 99.4703 7.50857V6.50132H97.6392V15.3109H99.4703V10.3865C99.4703 9.59772 99.6687 8.99552 100.064 8.57982C100.472 8.15347 101.018 7.94027 101.703 7.94027C102.388 7.94027 102.929 8.15347 103.326 8.57982C103.722 8.99552 103.92 9.59772 103.92 10.3865V15.3109H105.735V10.3865C105.735 9.59772 105.933 8.99552 106.329 8.57982C106.736 8.15347 107.283 7.94027 107.968 7.94027C108.653 7.94027 109.194 8.15347 109.591 8.57982C109.986 8.99552 110.185 9.59772 110.185 10.3865V15.3109H112V10.1147C112 9.31527 111.839 8.63312 111.518 8.06817C111.207 7.50327 110.774 7.07692 110.217 6.78912Z" fill="#8A8A8A"/>
<path d="M95.7856 15.3106V6.50098H93.9544V11.4094C93.9544 12.1982 93.7505 12.8057 93.3437 13.2321C92.9474 13.6478 92.407 13.8556 91.7215 13.8556C91.0359 13.8556 90.4955 13.6478 90.0992 13.2321C89.7029 12.8057 89.5046 12.1982 89.5046 11.4094V6.50098H87.6895V11.6812C87.6895 12.4806 87.8447 13.1628 88.1555 13.7277C88.4765 14.2926 88.9104 14.719 89.4563 15.0068C90.0133 15.2946 90.6396 15.4385 91.3357 15.4385C91.8606 15.4385 92.3533 15.3372 92.8138 15.1347C93.2849 14.9215 93.6651 14.6337 93.9544 14.2713V15.3106H95.7856Z" fill="#8A8A8A"/>
<path fill-rule="evenodd" clip-rule="evenodd" d="M57.6467 14.8952C58.3212 15.2683 59.0761 15.4548 59.9113 15.4548C60.7576 15.4548 61.5285 15.2683 62.2246 14.8952C62.9313 14.5115 63.4883 13.9732 63.8951 13.2804C64.3019 12.5876 64.5053 11.7935 64.5053 10.8981C64.5053 10.0028 64.3074 9.20867 63.9112 8.51587C63.5149 7.82302 62.974 7.29007 62.2889 6.91702C61.6034 6.54397 60.838 6.35742 59.9917 6.35742C59.1459 6.35742 58.38 6.54397 57.6944 6.91702C57.0094 7.29007 56.4684 7.82302 56.0722 8.51587C55.6759 9.20867 55.478 10.0028 55.478 10.8981C55.478 11.8041 55.6709 12.6036 56.0561 13.2964C56.4418 13.9786 56.9717 14.5115 57.6467 14.8952ZM61.2287 13.5362C60.8219 13.76 60.3824 13.872 59.9113 13.872C59.1725 13.872 58.5568 13.6162 58.0641 13.1045C57.5824 12.5822 57.3413 11.8468 57.3413 10.8981C57.3413 10.2586 57.4589 9.72032 57.6944 9.28332C57.9305 8.83562 58.2464 8.49987 58.6422 8.27602C59.0495 8.05222 59.4884 7.94027 59.9595 7.94027C60.4306 7.94027 60.8696 8.05222 61.2769 8.27602C61.6837 8.49987 62.0102 8.83562 62.2568 9.28332C62.5029 9.72032 62.6259 10.2586 62.6259 10.8981C62.6259 11.5377 62.4974 12.0813 62.2407 12.5289C61.9836 12.9766 61.6461 13.3124 61.2287 13.5362Z" fill="#8A8A8A"/>
<path fill-rule="evenodd" clip-rule="evenodd" d="M48.0027 14.9156C47.9903 14.9089 47.9778 14.9021 47.9655 14.8952C47.2908 14.5115 46.7607 13.9786 46.3752 13.2964C45.9896 12.6036 45.7969 11.8041 45.7969 10.8981C45.7969 10.0028 45.995 9.20867 46.3912 8.51587C46.7874 7.82302 47.3283 7.29007 48.0136 6.91702C48.699 6.54397 49.4647 6.35742 50.3107 6.35742C51.1565 6.35742 51.9224 6.54397 52.608 6.91702C53.293 7.29007 53.834 7.82302 54.2302 8.51587C54.6265 9.20867 54.8244 10.0028 54.8244 10.8981C54.8244 11.7935 54.621 12.5876 54.2142 13.2804C53.8073 13.9732 53.2503 14.5115 52.5437 14.8952C51.945 15.216 51.2911 15.3989 50.5814 15.4438C51.4508 15.8397 52.7732 16.1594 53.5155 16.3388C53.8335 16.4157 54.0449 16.4668 54.0695 16.4872L54.0705 16.4875V18.3114H47.399V16.4875H51.2434C50.2655 16.2676 48.9372 15.546 48.0027 14.9156ZM50.2304 13.872C50.7015 13.872 51.1404 13.76 51.5477 13.5362C51.9651 13.3124 52.3026 12.9766 52.5598 12.5289C52.8164 12.0813 52.945 11.5377 52.945 10.8981C52.945 10.2586 52.8219 9.72032 52.5758 9.28332C52.3292 8.83562 52.0028 8.49987 51.596 8.27602C51.1886 8.05222 50.7497 7.94027 50.2786 7.94027C49.8074 7.94027 49.3683 8.05222 48.9614 8.27602C48.5651 8.49987 48.2492 8.83562 48.0136 9.28332C47.778 9.72032 47.6602 10.2586 47.6602 10.8981C47.6602 11.8468 47.9012 12.5822 48.3831 13.1045C48.8757 13.6162 49.4915 13.872 50.2304 13.872Z" fill="#8A8A8A"/>
<path fill-rule="evenodd" clip-rule="evenodd" d="M38.2838 14.8952C38.9584 15.2683 39.7134 15.4548 40.5487 15.4548C41.3947 15.4548 42.1657 15.2683 42.8619 14.8952C43.5686 14.5115 44.1255 13.9732 44.5324 13.2804C44.9394 12.5876 45.1428 11.7935 45.1428 10.8981C45.1428 10.0028 44.9447 9.20867 44.5485 8.51587C44.1523 7.82302 43.6114 7.29007 42.9261 6.91702C42.2407 6.54397 41.475 6.35742 40.629 6.35742C39.783 6.35742 39.0173 6.54397 38.332 6.91702C37.6466 7.29007 37.1058 7.82302 36.7096 8.51587C36.3134 9.20867 36.1152 10.0028 36.1152 10.8981C36.1152 11.8041 36.308 12.6036 36.6935 13.2964C37.079 13.9786 37.6091 14.5115 38.2838 14.8952ZM41.8659 13.5362C41.459 13.76 41.0199 13.872 40.5487 13.872C39.8098 13.872 39.194 13.6162 38.7014 13.1045C38.2195 12.5822 37.9786 11.8468 37.9786 10.8981C37.9786 10.2586 38.0964 9.72032 38.332 9.28332C38.5676 8.83562 38.8835 8.49987 39.2797 8.27602C39.6866 8.05222 40.1257 7.94027 40.5969 7.94027C41.0681 7.94027 41.5072 8.05222 41.9141 8.27602C42.321 8.49987 42.6476 8.83562 42.8939 9.28332C43.1402 9.72032 43.2634 10.2586 43.2634 10.8981C43.2634 11.5377 43.1349 12.0813 42.8779 12.5289C42.6209 12.9766 42.2836 13.3124 41.8659 13.5362Z" fill="#8A8A8A"/>
<path d="M31.966 13.8402H35.7408V15.3111H30.1348V4.19922H31.966V13.8402Z" fill="#8A8A8A"/>
</g>
<defs>
<clipPath id="clip0_978_71292">
<rect width="112" height="20" fill="white"/>
</clipPath>
</defs>
</svg>
