<svg width="80" height="80" viewBox="0 0 80 80" fill="none" xmlns="http://www.w3.org/2000/svg">
<foreignObject x="-4" y="-4" width="88" height="88"><div xmlns="http://www.w3.org/1999/xhtml" style="backdrop-filter:blur(2px);clip-path:url(#bgblur_1_973_67787_clip_path);height:100%;width:100%"></div></foreignObject><g data-figma-bg-blur-radius="4">
<g clip-path="url(#clip0_973_67787)">
<path d="M0 40C0 25.0461 0 17.5692 3.21539 12C5.32183 8.35154 8.35154 5.32183 12 3.21539C17.5692 0 25.0461 0 40 0V0C54.9539 0 62.4308 0 68 3.21539C71.6485 5.32183 74.6782 8.35154 76.7846 12C80 17.5692 80 25.0461 80 40V40C80 54.9539 80 62.4308 76.7846 68C74.6782 71.6485 71.6485 74.6782 68 76.7846C62.4308 80 54.9539 80 40 80V80C25.0461 80 17.5692 80 12 76.7846C8.35154 74.6782 5.32183 71.6485 3.21539 68C0 62.4308 0 54.9539 0 40V40Z" fill="white" fill-opacity="0.05"/>
<path d="M0 40C0 25.0461 0 17.5692 3.21539 12C5.32183 8.35154 8.35154 5.32183 12 3.21539C17.5692 0 25.0461 0 40 0V0C54.9539 0 62.4308 0 68 3.21539C71.6485 5.32183 74.6782 8.35154 76.7846 12C80 17.5692 80 25.0461 80 40V40C80 54.9539 80 62.4308 76.7846 68C74.6782 71.6485 71.6485 74.6782 68 76.7846C62.4308 80 54.9539 80 40 80V80C25.0461 80 17.5692 80 12 76.7846C8.35154 74.6782 5.32183 71.6485 3.21539 68C0 62.4308 0 54.9539 0 40V40Z" fill="url(#paint0_linear_973_67787)" fill-opacity="0.1"/>
<path d="M0 40C0 25.0461 0 17.5692 3.21539 12C5.32183 8.35154 8.35154 5.32183 12 3.21539C17.5692 0 25.0461 0 40 0V0C54.9539 0 62.4308 0 68 3.21539C71.6485 5.32183 74.6782 8.35154 76.7846 12C80 17.5692 80 25.0461 80 40V40C80 54.9539 80 62.4308 76.7846 68C74.6782 71.6485 71.6485 74.6782 68 76.7846C62.4308 80 54.9539 80 40 80V80C25.0461 80 17.5692 80 12 76.7846C8.35154 74.6782 5.32183 71.6485 3.21539 68C0 62.4308 0 54.9539 0 40V40Z" fill="url(#paint1_radial_973_67787)" fill-opacity="0.06" style="mix-blend-mode:screen"/>
<g filter="url(#filter1_f_973_67787)">
<ellipse cx="227.271" cy="-0.000887871" rx="89.8182" ry="13.0909" fill="#56A665"/>
</g>
<g filter="url(#filter2_ddddddi_973_67787)">
<path fill-rule="evenodd" clip-rule="evenodd" d="M36.6064 25.1895C36.8872 25.1895 37.1664 25.1962 37.4438 25.2098C37.4494 25.2101 37.4541 25.2057 37.4541 25.2001C37.4541 25.1947 37.4585 25.1903 37.4638 25.1903H52.9762C53.3076 25.1905 53.5761 25.4611 53.5761 25.7952C53.5761 25.9557 53.5129 26.1096 53.4004 26.223L49.3329 30.3231H57.9963C58.576 30.3231 59.1058 30.6655 59.3062 31.2095C59.99 33.0651 60.364 35.0725 60.364 37.1681C60.364 46.6189 52.7664 54.2804 43.3943 54.2804C43.1137 54.2804 42.8346 54.2728 42.5573 54.2592C42.5515 54.2589 42.5466 54.2635 42.5466 54.2693C42.5466 54.275 42.5421 54.2796 42.5364 54.2796H27.0245C26.6932 54.2793 26.4246 54.0087 26.4246 53.6746C26.4246 53.5141 26.4878 53.3602 26.6003 53.2468L30.6662 49.1467H22.0044C21.4247 49.1467 20.8949 48.8043 20.6945 48.2603C20.0107 46.4047 19.6367 44.3974 19.6367 42.3017C19.6367 32.8509 27.2343 25.1895 36.6064 25.1895ZM42.4132 37.3026C41.0126 35.6498 38.9313 34.6012 36.6064 34.6012C32.3889 34.6012 28.97 38.0489 28.97 42.3017C28.97 43.202 29.1244 44.0656 29.4059 44.8686H34.9086L37.5875 42.1672C38.9881 43.82 41.0694 44.8686 43.3943 44.8686C47.6118 44.8686 51.0307 41.4209 51.0307 37.1681C51.0307 36.2679 50.8763 35.4042 50.5948 34.6012H45.0921L42.4132 37.3026Z" fill="url(#paint2_linear_973_67787)"/>
<path d="M36.6064 25.5527C36.8813 25.5527 37.1545 25.5599 37.4258 25.5732C37.4728 25.5755 37.5182 25.5677 37.5605 25.5537H52.9756C53.1035 25.5538 53.2127 25.6591 53.2129 25.7949C53.2129 25.86 53.187 25.9218 53.1426 25.9668L49.0752 30.0674L48.46 30.6865H57.9961C58.4354 30.6865 58.821 30.945 58.9648 31.335C59.6339 33.1509 60 35.116 60 37.168C60 46.4208 52.5628 53.9169 43.3945 53.917C43.2576 53.917 43.1208 53.9146 42.9844 53.9111L42.5752 53.8965C42.5277 53.8941 42.4822 53.9018 42.4395 53.916H27.0244C26.8966 53.9158 26.7882 53.8105 26.7881 53.6748C26.7881 53.6097 26.8139 53.5479 26.8584 53.5029L30.9248 49.4023L31.5391 48.7832H22.0049C21.5656 48.7832 21.18 48.5247 21.0361 48.1348C20.367 46.3189 20 44.3538 20 42.3018C20 33.0489 27.4381 25.5527 36.6064 25.5527ZM44.834 34.3447L42.4268 36.7725C40.969 35.2136 38.9016 34.2373 36.6064 34.2373C32.1853 34.2373 28.6064 37.8509 28.6064 42.3018C28.6064 43.2438 28.7678 44.1485 29.0625 44.9893L29.1484 45.2324H35.0605L35.167 45.125L37.5732 42.6973C39.031 44.2564 41.0992 45.2324 43.3945 45.2324C47.8156 45.2323 51.3945 41.6187 51.3945 37.168C51.3945 36.2259 51.2332 35.3212 50.9385 34.4805L50.8525 34.2373H44.9404L44.834 34.3447Z" stroke="url(#paint3_linear_973_67787)" stroke-width="0.727273"/>
</g>
</g>
<path d="M40 0.5C47.4858 0.5 53.0669 0.500057 57.4736 0.899414C61.8736 1.29819 65.0542 2.092 67.75 3.64844C71.3224 5.71099 74.289 8.67756 76.3516 12.25C77.908 14.9458 78.7018 18.1264 79.1006 22.5264C79.4999 26.9331 79.5 32.5142 79.5 40C79.5 47.4858 79.4999 53.0669 79.1006 57.4736C78.7018 61.8736 77.908 65.0542 76.3516 67.75C74.289 71.3224 71.3224 74.289 67.75 76.3516C65.0542 77.908 61.8736 78.7018 57.4736 79.1006C53.0669 79.4999 47.4858 79.5 40 79.5C32.5142 79.5 26.9331 79.4999 22.5264 79.1006C18.1264 78.7018 14.9458 77.908 12.25 76.3516C8.67756 74.289 5.71099 71.3224 3.64844 67.75C2.092 65.0542 1.29819 61.8736 0.899414 57.4736C0.500057 53.0669 0.5 47.4858 0.5 40C0.5 32.5142 0.500057 26.9331 0.899414 22.5264C1.29819 18.1264 2.092 14.9458 3.64844 12.25C5.71099 8.67756 8.67756 5.71099 12.25 3.64844C14.9458 2.092 18.1264 1.29819 22.5264 0.899414C26.9331 0.500057 32.5142 0.5 40 0.5Z" stroke="url(#paint4_radial_973_67787)"/>
</g>
<defs>
<clipPath id="bgblur_1_973_67787_clip_path" transform="translate(4 4)"><path d="M0 40C0 25.0461 0 17.5692 3.21539 12C5.32183 8.35154 8.35154 5.32183 12 3.21539C17.5692 0 25.0461 0 40 0V0C54.9539 0 62.4308 0 68 3.21539C71.6485 5.32183 74.6782 8.35154 76.7846 12C80 17.5692 80 25.0461 80 40V40C80 54.9539 80 62.4308 76.7846 68C74.6782 71.6485 71.6485 74.6782 68 76.7846C62.4308 80 54.9539 80 40 80V80C25.0461 80 17.5692 80 12 76.7846C8.35154 74.6782 5.32183 71.6485 3.21539 68C0 62.4308 0 54.9539 0 40V40Z"/>
</clipPath><filter id="filter1_f_973_67787" x="-8.00142" y="-158.546" width="470.545" height="317.091" filterUnits="userSpaceOnUse" color-interpolation-filters="sRGB">
<feFlood flood-opacity="0" result="BackgroundImageFix"/>
<feBlend mode="normal" in="SourceGraphic" in2="BackgroundImageFix" result="shape"/>
<feGaussianBlur stdDeviation="72.7273" result="effect1_foregroundBlur_973_67787"/>
</filter>
<filter id="filter2_ddddddi_973_67787" x="3.46585" y="9.01859" width="73.0688" height="68.783" filterUnits="userSpaceOnUse" color-interpolation-filters="sRGB">
<feFlood flood-opacity="0" result="BackgroundImageFix"/>
<feColorMatrix in="SourceAlpha" type="matrix" values="0 0 0 0 0 0 0 0 0 0 0 0 0 0 0 0 0 0 127 0" result="hardAlpha"/>
<feOffset dy="11.7606"/>
<feGaussianBlur stdDeviation="5.88032"/>
<feColorMatrix type="matrix" values="0 0 0 0 0 0 0 0 0 0 0 0 0 0 0 0 0 0 0.07 0"/>
<feBlend mode="normal" in2="BackgroundImageFix" result="effect1_dropShadow_973_67787"/>
<feColorMatrix in="SourceAlpha" type="matrix" values="0 0 0 0 0 0 0 0 0 0 0 0 0 0 0 0 0 0 127 0" result="hardAlpha"/>
<feOffset dy="5.88032"/>
<feGaussianBlur stdDeviation="2.94016"/>
<feColorMatrix type="matrix" values="0 0 0 0 0 0 0 0 0 0 0 0 0 0 0 0 0 0 0.07 0"/>
<feBlend mode="normal" in2="effect1_dropShadow_973_67787" result="effect2_dropShadow_973_67787"/>
<feColorMatrix in="SourceAlpha" type="matrix" values="0 0 0 0 0 0 0 0 0 0 0 0 0 0 0 0 0 0 127 0" result="hardAlpha"/>
<feOffset dy="2.94016"/>
<feGaussianBlur stdDeviation="1.47008"/>
<feColorMatrix type="matrix" values="0 0 0 0 0 0 0 0 0 0 0 0 0 0 0 0 0 0 0.07 0"/>
<feBlend mode="normal" in2="effect2_dropShadow_973_67787" result="effect3_dropShadow_973_67787"/>
<feColorMatrix in="SourceAlpha" type="matrix" values="0 0 0 0 0 0 0 0 0 0 0 0 0 0 0 0 0 0 127 0" result="hardAlpha"/>
<feOffset dy="1.47008"/>
<feGaussianBlur stdDeviation="0.735039"/>
<feColorMatrix type="matrix" values="0 0 0 0 0 0 0 0 0 0 0 0 0 0 0 0 0 0 0.07 0"/>
<feBlend mode="normal" in2="effect3_dropShadow_973_67787" result="effect4_dropShadow_973_67787"/>
<feColorMatrix in="SourceAlpha" type="matrix" values="0 0 0 0 0 0 0 0 0 0 0 0 0 0 0 0 0 0 127 0" result="hardAlpha"/>
<feOffset dy="0.735039"/>
<feGaussianBlur stdDeviation="0.36752"/>
<feColorMatrix type="matrix" values="0 0 0 0 0 0 0 0 0 0 0 0 0 0 0 0 0 0 0.07 0"/>
<feBlend mode="normal" in2="effect4_dropShadow_973_67787" result="effect5_dropShadow_973_67787"/>
<feColorMatrix in="SourceAlpha" type="matrix" values="0 0 0 0 0 0 0 0 0 0 0 0 0 0 0 0 0 0 127 0" result="hardAlpha"/>
<feOffset/>
<feGaussianBlur stdDeviation="8.08543"/>
<feComposite in2="hardAlpha" operator="out"/>
<feColorMatrix type="matrix" values="0 0 0 0 1 0 0 0 0 1 0 0 0 0 1 0 0 0 0.25 0"/>
<feBlend mode="normal" in2="effect5_dropShadow_973_67787" result="effect6_dropShadow_973_67787"/>
<feBlend mode="normal" in="SourceGraphic" in2="effect6_dropShadow_973_67787" result="shape"/>
<feColorMatrix in="SourceAlpha" type="matrix" values="0 0 0 0 0 0 0 0 0 0 0 0 0 0 0 0 0 0 127 0" result="hardAlpha"/>
<feOffset dy="2.90909"/>
<feGaussianBlur stdDeviation="10.9091"/>
<feComposite in2="hardAlpha" operator="arithmetic" k2="-1" k3="1"/>
<feColorMatrix type="matrix" values="0 0 0 0 1 0 0 0 0 1 0 0 0 0 1 0 0 0 0.3 0"/>
<feBlend mode="normal" in2="shape" result="effect7_innerShadow_973_67787"/>
</filter>
<linearGradient id="paint0_linear_973_67787" x1="40" y1="18.8889" x2="40" y2="110" gradientUnits="userSpaceOnUse">
<stop stop-color="white" stop-opacity="0"/>
<stop offset="1" stop-color="#EAE9ED"/>
</linearGradient>
<radialGradient id="paint1_radial_973_67787" cx="0" cy="0" r="1" gradientUnits="userSpaceOnUse" gradientTransform="translate(12.48) scale(21.6 75.0997)">
<stop stop-color="#EAE9ED"/>
<stop offset="1" stop-opacity="0"/>
</radialGradient>
<linearGradient id="paint2_linear_973_67787" x1="31.8736" y1="55.5791" x2="11.1336" y2="41.3786" gradientUnits="userSpaceOnUse">
<stop stop-color="#E9AF03"/>
<stop offset="1" stop-color="#FCEA4C"/>
</linearGradient>
<linearGradient id="paint3_linear_973_67787" x1="42.4773" y1="27.5413" x2="44.9776" y2="34.6948" gradientUnits="userSpaceOnUse">
<stop stop-color="#FFF0F0" stop-opacity="0.5"/>
<stop offset="1" stop-color="#999090" stop-opacity="0"/>
</linearGradient>
<radialGradient id="paint4_radial_973_67787" cx="0" cy="0" r="1" gradientUnits="userSpaceOnUse" gradientTransform="translate(14.8454 10.7217) rotate(65.3326) scale(61.2604)">
<stop stop-color="white"/>
<stop offset="1" stop-color="white" stop-opacity="0"/>
</radialGradient>
<clipPath id="clip0_973_67787">
<path d="M0 40C0 25.0461 0 17.5692 3.21539 12C5.32183 8.35154 8.35154 5.32183 12 3.21539C17.5692 0 25.0461 0 40 0V0C54.9539 0 62.4308 0 68 3.21539C71.6485 5.32183 74.6782 8.35154 76.7846 12C80 17.5692 80 25.0461 80 40V40C80 54.9539 80 62.4308 76.7846 68C74.6782 71.6485 71.6485 74.6782 68 76.7846C62.4308 80 54.9539 80 40 80V80C25.0461 80 17.5692 80 12 76.7846C8.35154 74.6782 5.32183 71.6485 3.21539 68C0 62.4308 0 54.9539 0 40V40Z" fill="white"/>
</clipPath>
</defs>
</svg>
