<svg width="150" height="35" viewBox="0 0 150 35" fill="none" xmlns="http://www.w3.org/2000/svg">
<g opacity="0.4">
<path d="M23.6831 5.68501L21.118 5L18.9562 13.0402L17.0046 5.78146L14.4394 6.46647L16.548 14.309L11.2959 9.07484L9.4181 10.9463L15.1789 16.6876L8.00472 14.7718L7.31738 17.3283L15.1561 19.4215C15.0664 19.0358 15.0189 18.6338 15.0189 18.2208C15.0189 15.2974 17.3969 12.9275 20.3303 12.9275C23.2637 12.9275 25.6417 15.2974 25.6417 18.2208C25.6417 18.6311 25.5948 19.0306 25.5061 19.4141L32.6301 21.3165L33.3174 18.76L25.4475 16.6585L32.6222 14.7425L31.9348 12.1861L24.0652 14.2875L29.3173 9.05335L27.4394 7.18188L21.7585 12.8435L23.6831 5.68501Z" fill="white"/>
<path d="M25.4991 19.4453C25.2791 20.372 24.8148 21.2044 24.1777 21.8714L29.3387 27.0149L31.2166 25.1434L25.4991 19.4453Z" fill="white"/>
<path d="M24.1258 21.9219C23.481 22.5782 22.6662 23.068 21.7524 23.3204L23.6304 30.3053L26.1956 29.6202L24.1258 21.9219Z" fill="white"/>
<path d="M21.6563 23.3483C21.2323 23.4569 20.788 23.5146 20.3301 23.5146C19.8395 23.5146 19.3644 23.4483 18.9134 23.3242L17.0337 30.3155L19.5989 31.0005L21.6563 23.3483Z" fill="white"/>
<path d="M18.8231 23.2981C17.9233 23.0331 17.1229 22.5371 16.4913 21.8789L11.3176 27.035L13.1955 28.9065L18.8231 23.2981Z" fill="white"/>
<path d="M16.4481 21.8335C15.8273 21.1712 15.3751 20.3498 15.1599 19.4375L8.0127 21.3461L8.70003 23.9025L16.4481 21.8335Z" fill="white"/>
<path d="M43.6938 9.65625H46.6638V24.1092H43.6938V9.65625Z" fill="white"/>
<path d="M48.3458 19.1586C48.3417 18.12 48.6459 17.1034 49.2199 16.2378C49.7939 15.3722 50.6119 14.6964 51.5703 14.2961C52.5287 13.8957 53.5843 13.7888 54.6035 13.9889C55.6227 14.189 56.5596 14.687 57.2955 15.42C58.0314 16.1529 58.5332 17.0878 58.7374 18.1062C58.9416 19.1246 58.8389 20.1807 58.4424 21.1407C58.0459 22.1006 57.3734 22.9214 56.5101 23.4988C55.6467 24.0763 54.6315 24.3846 53.5928 24.3846C52.9034 24.3925 52.2193 24.2628 51.5805 24.0032C50.9417 23.7436 50.3611 23.3593 49.8726 22.8728C49.384 22.3862 48.9974 21.8071 48.7353 21.1694C48.4731 20.5317 48.3407 19.8481 48.3458 19.1586ZM55.8698 19.1586C55.8574 18.7109 55.7133 18.2768 55.4556 17.9105C55.1978 17.5443 54.8378 17.2621 54.4206 17.0994C54.0033 16.9366 53.5474 16.9004 53.1097 16.9954C52.672 17.0904 52.272 17.3122 51.9597 17.6333C51.6475 17.9543 51.4367 18.3603 51.354 18.8005C51.2712 19.2406 51.3199 19.6954 51.4942 20.108C51.6685 20.5206 51.9605 20.8726 52.3337 21.1201C52.707 21.3676 53.145 21.4996 53.5928 21.4996C53.8995 21.5078 54.2046 21.4523 54.4889 21.3367C54.7731 21.2211 55.0303 21.0479 55.2442 20.828C55.4581 20.608 55.6242 20.3461 55.7318 20.0588C55.8395 19.7715 55.8865 19.465 55.8698 19.1586Z" fill="white"/>
<path d="M70.6769 14.2088V23.6088C70.6769 26.9348 68.0829 28.3408 65.4499 28.3408C64.5229 28.4102 63.5946 28.2229 62.7669 27.7996C61.9393 27.3762 61.2442 26.7331 60.7579 25.9408L63.2919 24.4758C63.4963 24.8888 63.822 25.2295 64.2253 25.4524C64.6287 25.6752 65.0905 25.7696 65.5489 25.7228C65.8419 25.7634 66.1403 25.7376 66.422 25.6473C66.7036 25.557 66.9614 25.4045 67.1762 25.2012C67.391 24.9978 67.5573 24.7488 67.6629 24.4724C67.7684 24.1961 67.8104 23.8996 67.7859 23.6048V22.6998C67.4381 23.1253 66.9955 23.4634 66.4934 23.6869C65.9913 23.9104 65.4439 24.0131 64.8949 23.9868C63.5887 23.9456 62.3498 23.3978 61.4404 22.4592C60.531 21.5207 60.0225 20.2651 60.0225 18.9583C60.0225 17.6515 60.531 16.3959 61.4404 15.4574C62.3498 14.5188 63.5887 13.971 64.8949 13.9298C65.4439 13.9035 65.9913 14.0062 66.4934 14.2297C66.9955 14.4532 67.4381 14.7913 67.7859 15.2168V14.2068L70.6769 14.2088ZM67.7869 18.9598C67.8069 18.4812 67.6831 18.0075 67.4316 17.5998C67.1801 17.192 66.8123 16.8689 66.3756 16.672C65.9389 16.475 65.4533 16.4133 64.9812 16.4947C64.5091 16.5761 64.0722 16.7969 63.7266 17.1288C63.3811 17.4606 63.1428 17.8882 63.0423 18.3566C62.9419 18.825 62.9839 19.3128 63.1631 19.7571C63.3422 20.2014 63.6502 20.582 64.0474 20.8498C64.4446 21.1176 64.9129 21.2604 65.3919 21.2598C65.704 21.2816 66.0171 21.2378 66.3112 21.1312C66.6053 21.0246 66.8738 20.8575 67.0994 20.6409C67.325 20.4242 67.5028 20.1627 67.6212 19.8731C67.7396 19.5836 67.7961 19.2725 67.7869 18.9598Z" fill="white"/>
<path d="M72.3585 19.1586C72.3544 18.12 72.6585 17.1034 73.2326 16.2378C73.8066 15.3722 74.6246 14.6964 75.583 14.2961C76.5414 13.8957 77.597 13.7888 78.6162 13.9889C79.6354 14.189 80.5723 14.687 81.3082 15.42C82.0441 16.1529 82.5459 17.0878 82.7501 18.1062C82.9543 19.1246 82.8516 20.1807 82.4551 21.1407C82.0586 22.1006 81.3861 22.9214 80.5228 23.4988C79.6594 24.0763 78.6442 24.3846 77.6055 24.3846C76.9161 24.3925 76.2319 24.2628 75.5932 24.0032C74.9544 23.7436 74.3738 23.3593 73.8853 22.8728C73.3967 22.3862 73.0101 21.8071 72.748 21.1694C72.4858 20.5317 72.3534 19.8481 72.3585 19.1586ZM79.8825 19.1586C79.8701 18.7109 79.726 18.2768 79.4683 17.9105C79.2105 17.5443 78.8505 17.2621 78.4333 17.0994C78.016 16.9366 77.56 16.9004 77.1224 16.9954C76.6847 17.0904 76.2847 17.3122 75.9724 17.6333C75.6602 17.9543 75.4494 18.3603 75.3666 18.8005C75.2838 19.2406 75.3326 19.6954 75.5069 20.108C75.6812 20.5206 75.9732 20.8726 76.3464 21.1201C76.7197 21.3676 77.1576 21.4996 77.6055 21.4996C77.9122 21.5078 78.2173 21.4523 78.5015 21.3367C78.7858 21.2211 79.043 21.0479 79.2569 20.828C79.4708 20.608 79.6369 20.3461 79.7445 20.0588C79.8522 19.7715 79.8992 19.465 79.8825 19.1586Z" fill="white"/>
<path d="M84.2378 11.5554C84.2378 11.203 84.3423 10.8585 84.5381 10.5654C84.7339 10.2724 85.0123 10.044 85.3379 9.90909C85.6635 9.77421 86.0218 9.73892 86.3675 9.80768C86.7131 9.87644 87.0307 10.0462 87.2799 10.2954C87.5291 10.5446 87.6988 10.8621 87.7676 11.2078C87.8363 11.5535 87.801 11.9118 87.6662 12.2374C87.5313 12.563 87.3029 12.8413 87.0098 13.0371C86.7168 13.2329 86.3723 13.3374 86.0198 13.3374C85.5487 13.3327 85.0981 13.1435 84.7649 12.8103C84.4318 12.4771 84.2425 12.0266 84.2378 11.5554ZM84.5378 14.2084H87.5088V24.1084H84.5338L84.5378 14.2084Z" fill="white"/>
<path d="M100.333 19.1622C100.367 19.8165 100.272 20.4711 100.052 21.0884C99.8325 21.7057 99.4931 22.2735 99.0533 22.7592C98.6136 23.2448 98.0821 23.6388 97.4896 23.9184C96.897 24.1979 96.2551 24.3576 95.6006 24.3882C95.0502 24.4182 94.5001 24.3254 93.99 24.1165C93.4799 23.9075 93.0228 23.5877 92.6516 23.1802V28.0712H89.6816V14.2122H92.6516V15.1422C93.0229 14.735 93.4802 14.4154 93.9902 14.2067C94.5003 13.9979 95.0503 13.9052 95.6006 13.9352C96.2552 13.9657 96.8973 14.1253 97.49 14.4049C98.0827 14.6845 98.6142 15.0785 99.054 15.5643C99.4938 16.0501 99.8332 16.6181 100.053 17.2356C100.272 17.853 100.367 18.5078 100.333 19.1622ZM97.3626 19.1622C97.351 18.6989 97.203 18.2493 96.9371 17.8696C96.6712 17.49 96.2993 17.1972 95.8679 17.028C95.4364 16.8587 94.9646 16.8204 94.5115 16.918C94.0584 17.0155 93.6442 17.2445 93.3206 17.5763C92.997 17.9082 92.7785 18.328 92.6924 18.7835C92.6063 19.2389 92.6564 19.7095 92.8365 20.1366C93.0165 20.5637 93.3186 20.9281 93.7048 21.1844C94.091 21.4406 94.5441 21.5773 95.0076 21.5772C95.3258 21.5914 95.6434 21.5381 95.9396 21.4209C96.2357 21.3038 96.5038 21.1253 96.7261 20.8973C96.9485 20.6692 97.1201 20.3968 97.2298 20.0978C97.3395 19.7988 97.3848 19.4799 97.3626 19.1622Z" fill="white"/>
<path d="M109.498 21.1379C109.498 23.4149 107.519 24.3849 105.381 24.3849C104.517 24.4631 103.65 24.2805 102.891 23.8604C102.132 23.4404 101.517 22.8024 101.124 22.0289L103.697 20.5639C103.801 20.9214 104.025 21.2325 104.33 21.445C104.636 21.6576 105.006 21.7589 105.377 21.7319C106.089 21.7319 106.446 21.5139 106.446 21.1189C106.446 20.0289 101.575 20.6039 101.575 17.1789C101.575 15.0199 103.397 13.9319 105.456 13.9319C106.23 13.9074 106.996 14.091 107.675 14.4635C108.354 14.8361 108.921 15.3839 109.316 16.0499L106.782 17.4159C106.671 17.1566 106.486 16.9357 106.25 16.7808C106.014 16.6259 105.738 16.5439 105.456 16.5449C104.941 16.5449 104.624 16.7449 104.624 17.0989C104.628 18.2279 109.498 17.4749 109.498 21.1379Z" fill="white"/>
<path d="M120.347 14.2109V24.1109H117.377V23.1799C117.034 23.5907 116.599 23.9144 116.107 24.1244C115.615 24.3344 115.081 24.4247 114.547 24.3879C112.547 24.3879 110.847 22.9629 110.847 20.2879V14.2109H113.817V19.8529C113.792 20.0887 113.819 20.3271 113.896 20.5514C113.972 20.7758 114.097 20.9808 114.261 21.1521C114.425 21.3234 114.624 21.4569 114.845 21.5434C115.065 21.6299 115.302 21.6673 115.539 21.6529C116.628 21.6529 117.38 21.0199 117.38 19.6139V14.2139L120.347 14.2109Z" fill="white"/>
<path d="M137.377 18.0307V24.1087H134.407V18.2877C134.407 17.2977 133.932 16.6647 132.982 16.6647C131.992 16.6647 131.437 17.3577 131.437 18.5257V24.1087H128.468V18.2877C128.468 17.2977 127.993 16.6647 127.042 16.6647C126.052 16.6647 125.498 17.3577 125.498 18.5257V24.1087H122.528V14.2087H125.498V15.1187C125.806 14.715 126.21 14.3948 126.673 14.1875C127.137 13.9801 127.645 13.8922 128.151 13.9317C128.659 13.9068 129.165 14.0141 129.62 14.243C130.074 14.4718 130.461 14.8146 130.744 15.2377C131.073 14.795 131.509 14.443 132.011 14.2146C132.513 13.9862 133.065 13.8889 133.615 13.9317C135.888 13.9327 137.377 15.5557 137.377 18.0307Z" fill="white"/>
<path d="M139.889 14.1502C141.106 14.1502 142.093 13.1634 142.093 11.9462C142.093 10.7289 141.106 9.74219 139.889 9.74219C138.672 9.74219 137.685 10.7289 137.685 11.9462C137.685 13.1634 138.672 14.1502 139.889 14.1502Z" fill="white"/>
</g>
</svg>
