<svg width="115" height="24" viewBox="0 0 115 24" fill="none" xmlns="http://www.w3.org/2000/svg">
<g clip-path="url(#clip0_978_71300)">
<path d="M21.9341 0.722656H24.2061V13.0698H27.9445V15.1277H21.9341V0.722656Z" fill="#8A8A8A"/>
<path d="M32.2373 15.3332C31.122 15.3332 30.2683 15.0177 29.6762 14.3866C29.0841 13.7555 28.7881 12.8638 28.7881 11.7113V4.13844C28.7881 2.98603 29.0841 2.09429 29.6762 1.46322C30.2683 0.832139 31.122 0.516602 32.2373 0.516602C33.3526 0.516602 34.2063 0.832139 34.7985 1.46322C35.3905 2.09429 35.6866 2.98603 35.6866 4.13844V11.7113C35.6866 12.8638 35.3905 13.7555 34.7985 14.3866C34.2063 15.0177 33.3526 15.3332 32.2373 15.3332ZM32.2373 13.2753C33.0222 13.2753 33.4146 12.802 33.4146 11.8554V3.99438C33.4146 3.04777 33.0222 2.57446 32.2373 2.57446C31.4525 2.57446 31.06 3.04777 31.06 3.99438V11.8554C31.06 12.802 31.4525 13.2753 32.2373 13.2753Z" fill="#8A8A8A"/>
<path d="M40.4454 15.3332C39.3439 15.3332 38.5039 15.0245 37.9256 14.4071C37.3473 13.7761 37.0581 12.8775 37.0581 11.7113V4.13844C37.0581 2.97231 37.3473 2.08057 37.9256 1.46322C38.5039 0.832139 39.3439 0.516602 40.4454 0.516602C41.547 0.516602 42.3869 0.832139 42.9652 1.46322C43.5436 2.08057 43.8327 2.97231 43.8327 4.13844V5.37314H41.6847V3.99438C41.6847 3.04777 41.2922 2.57446 40.5073 2.57446C39.7225 2.57446 39.3301 3.04777 39.3301 3.99438V11.876C39.3301 12.8089 39.7225 13.2753 40.5073 13.2753C41.2922 13.2753 41.6847 12.8089 41.6847 11.876V9.05672H40.5487V6.99887H43.8327V11.7113C43.8327 12.8775 43.5436 13.7761 42.9652 14.4071C42.3869 15.0245 41.547 15.3332 40.4454 15.3332Z" fill="#8A8A8A"/>
<path d="M48.5752 15.3332C47.4599 15.3332 46.6062 15.0177 46.0141 14.3866C45.422 13.7555 45.126 12.8638 45.126 11.7113V4.13844C45.126 2.98603 45.422 2.09429 46.0141 1.46322C46.6062 0.832139 47.4599 0.516602 48.5752 0.516602C49.6906 0.516602 50.5443 0.832139 51.1364 1.46322C51.7285 2.09429 52.0245 2.98603 52.0245 4.13844V11.7113C52.0245 12.8638 51.7285 13.7555 51.1364 14.3866C50.5443 15.0177 49.6906 15.3332 48.5752 15.3332ZM48.5752 13.2753C49.3601 13.2753 49.7525 12.802 49.7525 11.8554V3.99438C49.7525 3.04777 49.3601 2.57446 48.5752 2.57446C47.7904 2.57446 47.398 3.04777 47.398 3.99438V11.8554C47.398 12.802 47.7904 13.2753 48.5752 13.2753Z" fill="#8A8A8A"/>
<path d="M53.5654 0.722656H55.8374V15.1277H53.5654V0.722656Z" fill="#8A8A8A"/>
<path d="M57.5386 0.722656H60.8845C62.0135 0.722656 62.8604 1.02447 63.4251 1.62812C63.9899 2.23175 64.272 3.11663 64.272 4.28275V5.70267C64.272 6.86881 63.9899 7.75366 63.4251 8.35733C62.8604 8.96094 62.0135 9.26275 60.8845 9.26275H59.8107V15.1277H57.5386V0.722656ZM60.8845 7.2049C61.2565 7.2049 61.5318 7.10199 61.7109 6.89624C61.9037 6.69042 61.9999 6.34062 61.9999 5.84671V4.1387C61.9999 3.64481 61.9037 3.29498 61.7109 3.08919C61.5318 2.88341 61.2565 2.78052 60.8845 2.78052H59.8107V7.2049H60.8845Z" fill="#8A8A8A"/>
<path d="M68.5403 15.3332C67.4392 15.3332 66.606 15.0245 66.0412 14.4071C65.477 13.7761 65.1943 12.8775 65.1943 11.7113V10.8882H67.3425V11.876C67.3425 12.8089 67.7349 13.2753 68.5198 13.2753C68.9054 13.2753 69.1944 13.1656 69.3872 12.9461C69.5936 12.7129 69.6971 12.3424 69.6971 11.8348C69.6971 11.2312 69.5595 10.703 69.2842 10.2503C69.0089 9.78381 68.4993 9.2282 67.7554 8.58339C66.8193 7.76025 66.1652 7.01944 65.7932 6.36092C65.4218 5.68868 65.2359 4.93414 65.2359 4.09728C65.2359 2.9586 65.5248 2.08057 66.1032 1.46322C66.6816 0.832139 67.5217 0.516602 68.6233 0.516602C69.7108 0.516602 70.5303 0.832139 71.0809 1.46322C71.6457 2.08057 71.9278 2.97231 71.9278 4.13844V4.73521H69.7796V3.99438C69.7796 3.5005 69.6835 3.1438 69.4907 2.9243C69.2979 2.69107 69.0158 2.57446 68.6438 2.57446C67.8862 2.57446 67.508 3.03405 67.508 3.95323C67.508 4.47455 67.6456 4.96157 67.9209 5.4143C68.2098 5.86701 68.7263 6.41577 69.4702 7.06058C70.42 7.88372 71.0741 8.63144 71.4324 9.30368C71.7901 9.97591 71.9693 10.7647 71.9693 11.6702C71.9693 12.85 71.673 13.7555 71.0809 14.3866C70.5025 15.0177 69.6556 15.3332 68.5403 15.3332Z" fill="#8A8A8A"/>
<path d="M76.5764 15.3334C75.4748 15.3334 74.6347 15.0248 74.0563 14.4074C73.4779 13.7764 73.189 12.8777 73.189 11.7116V0.722656H75.4611V11.8763C75.4611 12.3701 75.5572 12.7268 75.75 12.9464C75.9565 13.1658 76.246 13.2756 76.6174 13.2756C76.9894 13.2756 77.2715 13.1658 77.4643 12.9464C77.6707 12.7268 77.7742 12.3701 77.7742 11.8763V0.722656H79.9633V11.7116C79.9633 12.8777 79.6744 13.7764 79.096 14.4074C78.5176 15.0248 77.6775 15.3334 76.5764 15.3334Z" fill="#8A8A8A"/>
<path d="M81.5815 0.722656H84.8246L86.2703 11.0325H86.3113L87.7576 0.722656H91V15.1277H88.8519V4.22102H88.8109L87.1581 15.1277H85.2579L83.6057 4.22102H83.5648V15.1277H81.5815V0.722656Z" fill="#8A8A8A"/>
<path d="M0 15.1269C2.79511 15.1269 5.06097 12.8693 5.06097 10.0845C5.06097 7.29957 2.79511 5.04199 0 5.04199V8.57168C0.838525 8.57168 1.51828 9.24896 1.51828 10.0845C1.51828 10.9199 0.838525 11.5972 0 11.5972V15.1269Z" fill="#8A8A8A"/>
<path d="M16.87 6.72297C16.0051 6.45001 15.0841 6.30273 14.1286 6.30273C9.12069 6.30273 5.06104 10.3476 5.06104 15.3371C5.06104 15.8379 5.10194 16.3292 5.18057 16.8078H10.8145C10.6134 16.3586 10.5016 15.8609 10.5016 15.3371C10.5016 13.3413 12.1255 11.7234 14.1286 11.7234C15.2234 11.7234 16.2049 12.2067 16.87 12.9708V6.72297Z" fill="#8A8A8A"/>
<path d="M0.889648 0C1.30924 3.78179 4.52725 6.72327 8.43479 6.72327C12.3423 6.72327 15.5603 3.78179 15.9799 0H10.5509C10.2157 0.837137 9.39456 1.42869 8.43479 1.42869C7.47497 1.42869 6.65387 0.837137 6.31865 0H0.889648Z" fill="#8A8A8A"/>
</g>
<defs>
<clipPath id="clip0_978_71300">
<rect width="91" height="17" fill="white"/>
</clipPath>
</defs>
</svg>
