<svg width="115" height="24" viewBox="0 0 115 24" fill="none" xmlns="http://www.w3.org/2000/svg">
<g clip-path="url(#clip0_978_71296)">
<path d="M14.1762 0.615612C14.5283 0.248955 15.0064 0.0429688 15.5043 0.0429688C17.7443 0.0429688 19.8553 0.0429699 21.9341 0.0429741C26.1152 0.0429828 28.209 5.30782 25.2525 8.38694L18.8125 15.094C18.5168 15.402 18.0113 15.1839 18.0113 14.7484V8.84104L18.7555 8.06591C19.3468 7.4501 18.9281 6.39711 18.0918 6.39711H8.625L14.1762 0.615612Z" fill="#8A8A8A"/>
<path d="M12.4602 14.6226C12.1082 14.9892 11.6301 15.1952 11.1322 15.1952C8.89221 15.1952 6.78125 15.1952 4.7024 15.1952C0.521253 15.1952 -1.57246 9.93036 1.38405 6.8512L7.82404 0.144141C8.11967 -0.163774 8.62519 0.0543037 8.62519 0.48976L8.62523 6.39707L7.88096 7.17223C7.28967 7.78808 7.70843 8.84103 8.54467 8.84103L18.0115 8.84099L12.4602 14.6226Z" fill="#8A8A8A"/>
<path d="M63.9854 5.12012V12.7372H66.2198V5.12012H63.9854Z" fill="#8A8A8A"/>
<path d="M64.1408 3.85247C64.4048 4.11673 64.7275 4.24888 65.1096 4.24888C65.4912 4.24888 65.812 4.11673 66.0712 3.85247C66.3352 3.58817 66.4673 3.26725 66.4673 2.8897C66.4673 2.50271 66.3352 2.17943 66.0712 1.91987C65.812 1.65558 65.4912 1.52344 65.1096 1.52344C64.7275 1.52344 64.4048 1.65558 64.1408 1.91987C63.8767 2.17943 63.7446 2.50271 63.7446 2.8897C63.7446 3.26725 63.8767 3.58817 64.1408 3.85247Z" fill="#8A8A8A"/>
<path fill-rule="evenodd" clip-rule="evenodd" d="M67.4805 15.7099V5.11962H69.6019V5.87706H69.6297C69.7632 5.74525 69.9071 5.62491 70.0616 5.51604C70.5612 5.16678 71.1362 4.99219 71.7869 4.99219C72.3573 4.99219 72.9018 5.14084 73.4205 5.43817C73.9437 5.73546 74.368 6.17676 74.6933 6.76194C75.0183 7.34716 75.1762 8.0763 75.1671 8.94937C75.1716 9.61009 75.0795 10.1859 74.8912 10.6767C74.7024 11.1628 74.4479 11.5663 74.1275 11.8872C73.8071 12.2081 73.4486 12.4488 73.0525 12.6093C72.6567 12.7697 72.2561 12.8499 71.8504 12.8499C71.2092 12.8499 70.6343 12.6706 70.1251 12.312C69.9969 12.2205 69.8755 12.1214 69.7609 12.0146H69.7149V15.7099H67.4805ZM71.3272 10.9811C71.6571 10.9763 71.9471 10.8891 72.1971 10.7192C72.4467 10.5493 72.6427 10.3086 72.7838 9.9971C72.9254 9.6856 72.9939 9.32221 72.9889 8.90689C72.9939 8.48217 72.9231 8.11878 72.777 7.81672C72.6354 7.50998 72.4353 7.27634 72.1758 7.11588C71.9166 6.95074 71.6194 6.87047 71.285 6.8752C70.9691 6.87047 70.686 6.94838 70.4364 7.10883C70.1864 7.26929 69.9885 7.50289 69.8424 7.80964C69.6963 8.11169 69.6232 8.47744 69.6232 8.90689C69.6232 9.32221 69.6963 9.6856 69.8424 9.9971C69.9931 10.3086 70.1959 10.5493 70.4505 10.7192C70.705 10.8891 70.9973 10.9763 71.3272 10.9811Z" fill="#8A8A8A"/>
<path d="M77.3189 12.6169C77.7337 12.7726 78.1675 12.8505 78.6199 12.8505C79.1386 12.8505 79.6123 12.749 80.0412 12.5461C80.475 12.3431 80.8213 12.06 81.0808 11.6966C81.3449 11.3285 81.4765 10.9061 81.4765 10.4294C81.4765 10.0519 81.3966 9.73331 81.2364 9.47377C81.0808 9.21419 80.8825 9.00181 80.6424 8.83663C80.4065 8.67145 80.1637 8.54165 79.9141 8.44729C79.6641 8.34817 79.4449 8.27266 79.2562 8.22074C79.0111 8.14996 78.7756 8.07682 78.5492 8.00131C78.3231 7.92581 78.1367 7.83613 77.9906 7.73228C77.8444 7.62847 77.7714 7.4916 77.7714 7.32169C77.7714 7.15183 77.8444 7.01023 77.9906 6.89697C78.1367 6.78371 78.3205 6.72706 78.5423 6.72706C78.806 6.72706 79.0229 6.79785 79.1926 6.93945C79.3673 7.08101 79.499 7.22733 79.5888 7.37834L81.3068 6.63503C81.0903 6.14421 80.7223 5.75015 80.2041 5.45282C79.69 5.15552 79.1101 5.00684 78.4643 5.00684C77.946 5.00684 77.4837 5.1036 77.0784 5.29708C76.6777 5.49057 76.3596 5.7596 76.1237 6.10409C75.8927 6.4439 75.7774 6.83796 75.7774 7.2863C75.7774 7.71106 75.8764 8.07209 76.0742 8.36943C76.2725 8.66672 76.5293 8.91213 76.8452 9.10566C77.1656 9.29442 77.505 9.44306 77.8635 9.55164C78.0191 9.59411 78.1888 9.64127 78.3726 9.6932C78.561 9.74512 78.7402 9.80645 78.9099 9.87727C79.0796 9.94805 79.2185 10.033 79.327 10.1321C79.4354 10.2312 79.4898 10.3492 79.4898 10.4861C79.4898 10.5946 79.4521 10.6961 79.3764 10.7905C79.306 10.8849 79.2067 10.9627 79.0796 11.0241C78.9521 11.0807 78.8037 11.109 78.634 11.109C78.3136 11.109 78.0355 11.0099 77.7995 10.8117C77.564 10.6135 77.3874 10.4035 77.2695 10.1817L75.5156 10.9533C75.6758 11.3356 75.914 11.6706 76.2299 11.9585C76.5457 12.2417 76.9087 12.4611 77.3189 12.6169Z" fill="#8A8A8A"/>
<path d="M90.5596 12.7372V5.12013H92.6878V6.08996H92.7267C92.8933 5.85823 93.0805 5.66238 93.2891 5.50238C93.7134 5.17202 94.2153 5.00684 94.7952 5.00684C95.2758 5.00684 95.6837 5.12482 96.0186 5.36082C96.2766 5.5367 96.487 5.77266 96.6499 6.0687H96.6898C96.9307 5.76127 97.2233 5.52055 97.5669 5.34665C98.0148 5.12013 98.5026 5.00684 99.0308 5.00684C99.535 5.00684 99.9502 5.09651 100.275 5.27586C100.6 5.45045 100.855 5.68173 101.039 5.96962C101.223 6.25278 101.352 6.56425 101.428 6.90406C101.503 7.2391 101.541 7.56474 101.541 7.88097V12.7372H99.2922V8.15705C99.2922 7.74173 99.2051 7.42318 99.0308 7.20135C98.8611 6.97484 98.6111 6.86158 98.2812 6.86158C98.0643 6.86158 97.871 6.91114 97.7013 7.01023C97.5365 7.10463 97.4044 7.24855 97.3055 7.44204C97.2111 7.63556 97.164 7.87388 97.164 8.15705V12.7372H94.9295V8.15705C94.9295 7.74173 94.8424 7.42318 94.6677 7.20135C94.4934 6.97484 94.2411 6.86158 93.9112 6.86158C93.5908 6.86158 93.3245 6.97247 93.1121 7.1943C92.9002 7.41137 92.794 7.73701 92.794 8.17122V12.7372H90.5596Z" fill="#8A8A8A"/>
<path d="M85.0916 12.8504C84.5684 12.8504 84.0924 12.7395 83.6635 12.5178C83.2343 12.2912 82.8926 11.9608 82.638 11.5267C82.3884 11.0878 82.2632 10.5474 82.2632 9.90557V5.12012H84.4976V9.60823C84.4976 10.0471 84.611 10.3822 84.837 10.6135C85.068 10.84 85.3489 10.9533 85.6788 10.9533C85.9238 10.9533 86.1384 10.899 86.3222 10.7904C86.5106 10.6819 86.6567 10.5285 86.7606 10.3303C86.8691 10.1274 86.9231 9.88667 86.9231 9.60823V5.12012H89.1575V10.0684C89.1575 10.3421 89.1979 10.5403 89.2778 10.663C89.3581 10.7857 89.5205 10.8919 89.7656 10.9816L88.9737 12.8504C88.4128 12.7042 88.0026 12.513 87.7435 12.2771C87.613 12.1582 87.514 12.0213 87.4467 11.8665H87.39C87.1925 12.0652 86.9733 12.2422 86.7324 12.3974C86.256 12.6994 85.7092 12.8504 85.0916 12.8504Z" fill="#8A8A8A"/>
<path fill-rule="evenodd" clip-rule="evenodd" d="M59.1467 12.8505C58.4157 12.8505 57.7486 12.6829 57.1455 12.3479C56.5465 12.0128 56.0682 11.5503 55.7098 10.9604C55.3563 10.3704 55.1797 9.69084 55.1797 8.92158C55.1797 8.15232 55.3563 7.47274 55.7098 6.8828C56.0682 6.29289 56.5465 5.83274 57.1455 5.50238C57.7486 5.17202 58.4157 5.00684 59.1467 5.00684C59.8913 5.00684 60.563 5.17202 61.1619 5.50238C61.7605 5.83274 62.2342 6.29289 62.5832 6.8828C62.9367 7.47274 63.1132 8.15232 63.1132 8.92158C63.1132 9.69084 62.9367 10.3704 62.5832 10.9604C62.2342 11.5503 61.7582 12.0128 61.1547 12.3479C60.5561 12.6829 59.8868 12.8505 59.1467 12.8505ZM59.1467 10.9391C59.4952 10.9391 59.8088 10.8542 60.0869 10.6843C60.3651 10.5144 60.5843 10.2784 60.7445 9.97636C60.9047 9.67434 60.985 9.32272 60.985 8.92158C60.985 8.53461 60.9073 8.19007 60.7517 7.88802C60.5961 7.586 60.3815 7.35004 60.1082 7.18013C59.8346 7.0055 59.5188 6.91819 59.1607 6.91819C58.8072 6.91819 58.4887 7.00314 58.206 7.17305C57.9278 7.33823 57.7086 7.57183 57.5484 7.87388C57.3882 8.1759 57.308 8.52516 57.308 8.92158C57.308 9.32272 57.3882 9.67434 57.5484 9.97636C57.7132 10.2784 57.9351 10.5144 58.2132 10.6843C58.4914 10.8542 58.8023 10.9391 59.1467 10.9391Z" fill="#8A8A8A"/>
<path fill-rule="evenodd" clip-rule="evenodd" d="M48.5665 15.5903C49.0943 15.746 49.6742 15.8239 50.3058 15.8239C50.8953 15.8239 51.4349 15.7484 51.9254 15.5974C52.4155 15.4511 52.8398 15.2293 53.1978 14.9319C53.5608 14.6346 53.8413 14.2665 54.0395 13.8276C54.2374 13.3887 54.3364 12.879 54.3364 12.2985V5.11326H52.307V5.85653H52.2648C52.1297 5.72712 51.9836 5.60914 51.826 5.50259C51.3359 5.16751 50.7632 5 50.108 5C49.5421 5 48.9976 5.14392 48.4744 5.43181C47.9512 5.71497 47.5223 6.13973 47.1874 6.70606C46.8575 7.26766 46.6924 7.97318 46.6924 8.82271C46.6924 9.45981 46.789 10.0143 46.9823 10.4863C47.1756 10.9582 47.4325 11.3523 47.7533 11.6685C48.0786 11.98 48.439 12.2136 48.8351 12.3693C49.2312 12.5203 49.6293 12.5958 50.03 12.5958C50.6761 12.5958 51.2511 12.4189 51.7556 12.0649C51.9151 11.9514 52.0642 11.8264 52.2024 11.6897H52.2362V12.4259C52.2362 12.7893 52.1187 13.0819 51.8827 13.3037C51.6472 13.5303 51.3618 13.6955 51.0273 13.7993C50.6925 13.9031 50.3694 13.955 50.0585 13.955C49.6955 13.955 49.337 13.896 48.9835 13.7781C48.6346 13.6648 48.3283 13.5279 48.0646 13.3675L47.329 15.1231C47.6308 15.2835 48.0432 15.4393 48.5665 15.5903ZM51.4798 10.5217C51.2206 10.6916 50.9212 10.7765 50.5817 10.7765C50.2469 10.7765 49.9523 10.6916 49.6978 10.5217C49.4432 10.347 49.243 10.1087 49.0969 9.80667C48.9508 9.49992 48.8774 9.14834 48.8774 8.75189C48.8774 8.35547 48.9508 8.01093 49.0969 7.71836C49.2476 7.42575 49.455 7.20156 49.7191 7.04583C49.9832 6.88537 50.2823 6.80514 50.6171 6.80514C50.9516 6.80514 51.2465 6.88301 51.5011 7.03874C51.7556 7.19451 51.9558 7.41867 52.1019 7.71128C52.248 7.99916 52.3211 8.34602 52.3211 8.75189C52.3211 9.15303 52.2458 9.50701 52.0951 9.81375C51.944 10.1158 51.7389 10.3518 51.4798 10.5217Z" fill="#8A8A8A"/>
<path fill-rule="evenodd" clip-rule="evenodd" d="M42.1584 12.8505C41.4278 12.8505 40.7607 12.6829 40.1572 12.3479C39.5586 12.0128 39.0799 11.5503 38.7219 10.9604C38.3684 10.3704 38.1914 9.69084 38.1914 8.92158C38.1914 8.15232 38.3684 7.47274 38.7219 6.8828C39.0799 6.29289 39.5586 5.83274 40.1572 5.50238C40.7607 5.17202 41.4278 5.00684 42.1584 5.00684C42.9031 5.00684 43.5751 5.17202 44.1736 5.50238C44.7722 5.83274 45.2459 6.29289 45.5949 6.8828C45.9484 7.47274 46.1253 8.15232 46.1253 8.92158C46.1253 9.69084 45.9484 10.3704 45.5949 10.9604C45.2459 11.5503 44.7699 12.0128 44.1664 12.3479C43.5678 12.6829 42.8985 12.8505 42.1584 12.8505ZM42.1584 10.9391C42.5073 10.9391 42.8205 10.8542 43.0986 10.6843C43.3768 10.5144 43.596 10.2784 43.7566 9.97636C43.9168 9.67434 43.9967 9.32272 43.9967 8.92158C43.9967 8.53461 43.9191 8.19007 43.7634 7.88802C43.6078 7.586 43.3936 7.35004 43.12 7.18013C42.8467 7.0055 42.5305 6.91819 42.1725 6.91819C41.8189 6.91819 41.5008 7.00314 41.2177 7.17305C40.9396 7.33823 40.7204 7.57183 40.5602 7.87388C40.4 8.1759 40.3197 8.52516 40.3197 8.92158C40.3197 9.32272 40.4 9.67434 40.5602 9.97636C40.7253 10.2784 40.9468 10.5144 41.2249 10.6843C41.5031 10.8542 41.814 10.9391 42.1584 10.9391Z" fill="#8A8A8A"/>
<path d="M32.1504 2.30273V12.7373H38.2246V10.6702H34.4697V2.30273H32.1504Z" fill="#8A8A8A"/>
</g>
<defs>
<clipPath id="clip0_978_71296">
<rect width="101.6" height="15.982" fill="white"/>
</clipPath>
</defs>
</svg>
