<svg width="80" height="80" viewBox="0 0 80 80" fill="none" xmlns="http://www.w3.org/2000/svg">
<foreignObject x="-4" y="-4" width="88" height="88"><div xmlns="http://www.w3.org/1999/xhtml" style="backdrop-filter:blur(2px);clip-path:url(#bgblur_1_973_67540_clip_path);height:100%;width:100%"></div></foreignObject><g data-figma-bg-blur-radius="4">
<g clip-path="url(#clip0_973_67540)">
<path d="M0 40C0 25.0461 0 17.5692 3.21539 12C5.32183 8.35154 8.35154 5.32183 12 3.21539C17.5692 0 25.0461 0 40 0V0C54.9539 0 62.4308 0 68 3.21539C71.6485 5.32183 74.6782 8.35154 76.7846 12C80 17.5692 80 25.0461 80 40V40C80 54.9539 80 62.4308 76.7846 68C74.6782 71.6485 71.6485 74.6782 68 76.7846C62.4308 80 54.9539 80 40 80V80C25.0461 80 17.5692 80 12 76.7846C8.35154 74.6782 5.32183 71.6485 3.21539 68C0 62.4308 0 54.9539 0 40V40Z" fill="white" fill-opacity="0.05"/>
<path d="M0 40C0 25.0461 0 17.5692 3.21539 12C5.32183 8.35154 8.35154 5.32183 12 3.21539C17.5692 0 25.0461 0 40 0V0C54.9539 0 62.4308 0 68 3.21539C71.6485 5.32183 74.6782 8.35154 76.7846 12C80 17.5692 80 25.0461 80 40V40C80 54.9539 80 62.4308 76.7846 68C74.6782 71.6485 71.6485 74.6782 68 76.7846C62.4308 80 54.9539 80 40 80V80C25.0461 80 17.5692 80 12 76.7846C8.35154 74.6782 5.32183 71.6485 3.21539 68C0 62.4308 0 54.9539 0 40V40Z" fill="url(#paint0_linear_973_67540)" fill-opacity="0.1"/>
<path d="M0 40C0 25.0461 0 17.5692 3.21539 12C5.32183 8.35154 8.35154 5.32183 12 3.21539C17.5692 0 25.0461 0 40 0V0C54.9539 0 62.4308 0 68 3.21539C71.6485 5.32183 74.6782 8.35154 76.7846 12C80 17.5692 80 25.0461 80 40V40C80 54.9539 80 62.4308 76.7846 68C74.6782 71.6485 71.6485 74.6782 68 76.7846C62.4308 80 54.9539 80 40 80V80C25.0461 80 17.5692 80 12 76.7846C8.35154 74.6782 5.32183 71.6485 3.21539 68C0 62.4308 0 54.9539 0 40V40Z" fill="url(#paint1_radial_973_67540)" fill-opacity="0.06" style="mix-blend-mode:screen"/>
<g filter="url(#filter1_f_973_67540)">
<ellipse cx="227.271" cy="-0.000887871" rx="89.8182" ry="13.0909" fill="#56A665"/>
</g>
<g filter="url(#filter2_ddddddi_973_67540)">
<path d="M47.6348 44.155C47.6348 39.3351 43.7274 35.4277 38.9075 35.4277H31.6348V44.155H38.9075V55.0641H47.6348V44.155Z" fill="url(#paint2_linear_973_67540)"/>
<path d="M38.9072 35.791C43.5263 35.791 47.2715 39.5362 47.2715 44.1553V54.7002H39.2715V43.791H31.998V35.791H38.9072Z" stroke="url(#paint3_linear_973_67540)" stroke-width="0.727273"/>
</g>
<g filter="url(#filter3_ddddddi_973_67540)">
<path d="M20.7266 44.8816C20.7266 50.5048 25.2851 55.0634 30.9084 55.0634H36.7266V46.3361H30.9084C30.105 46.3361 29.4538 45.6849 29.4538 44.8816V44.1543H20.7266V44.8816Z" fill="url(#paint4_linear_973_67540)"/>
<path d="M29.0898 44.5176V44.8818C29.09 45.8858 29.9042 46.7001 30.9082 46.7002H36.3633V54.7002H30.9082C25.4859 54.7001 21.09 50.3041 21.0898 44.8818V44.5176H29.0898Z" stroke="url(#paint5_linear_973_67540)" stroke-width="0.727273"/>
</g>
<g filter="url(#filter4_ddddddi_973_67540)">
<path d="M38.9084 24.5176C49.7533 24.5176 58.5447 33.3091 58.5447 44.1539V55.063H49.8175V44.1539C49.8175 38.129 44.9333 33.2449 38.9084 33.2449H30.9084C30.105 33.2449 29.4538 33.8961 29.4538 34.6994V35.4267H20.7266V34.6994C20.7266 29.0761 25.2851 24.5176 30.9084 24.5176H38.9084Z" fill="url(#paint6_linear_973_67540)"/>
<path d="M30.9082 24.8809H38.9082C49.5522 24.8809 58.1807 33.5103 58.1807 44.1543V54.6992H50.1807V44.1543C50.1807 37.9285 45.134 32.8809 38.9082 32.8809H30.9082C29.9042 32.881 29.0899 33.6952 29.0898 34.6992V35.0635H21.0898V34.6992C21.0899 29.2769 25.4859 24.881 30.9082 24.8809Z" stroke="url(#paint7_linear_973_67540)" stroke-width="0.727273"/>
</g>
</g>
<path d="M40 0.5C47.4858 0.5 53.0669 0.500057 57.4736 0.899414C61.8736 1.29819 65.0542 2.092 67.75 3.64844C71.3224 5.71099 74.289 8.67756 76.3516 12.25C77.908 14.9458 78.7018 18.1264 79.1006 22.5264C79.4999 26.9331 79.5 32.5142 79.5 40C79.5 47.4858 79.4999 53.0669 79.1006 57.4736C78.7018 61.8736 77.908 65.0542 76.3516 67.75C74.289 71.3224 71.3224 74.289 67.75 76.3516C65.0542 77.908 61.8736 78.7018 57.4736 79.1006C53.0669 79.4999 47.4858 79.5 40 79.5C32.5142 79.5 26.9331 79.4999 22.5264 79.1006C18.1264 78.7018 14.9458 77.908 12.25 76.3516C8.67756 74.289 5.71099 71.3224 3.64844 67.75C2.092 65.0542 1.29819 61.8736 0.899414 57.4736C0.500057 53.0669 0.5 47.4858 0.5 40C0.5 32.5142 0.500057 26.9331 0.899414 22.5264C1.29819 18.1264 2.092 14.9458 3.64844 12.25C5.71099 8.67756 8.67756 5.71099 12.25 3.64844C14.9458 2.092 18.1264 1.29819 22.5264 0.899414C26.9331 0.500057 32.5142 0.5 40 0.5Z" stroke="url(#paint8_radial_973_67540)"/>
</g>
<defs>
<clipPath id="bgblur_1_973_67540_clip_path" transform="translate(4 4)"><path d="M0 40C0 25.0461 0 17.5692 3.21539 12C5.32183 8.35154 8.35154 5.32183 12 3.21539C17.5692 0 25.0461 0 40 0V0C54.9539 0 62.4308 0 68 3.21539C71.6485 5.32183 74.6782 8.35154 76.7846 12C80 17.5692 80 25.0461 80 40V40C80 54.9539 80 62.4308 76.7846 68C74.6782 71.6485 71.6485 74.6782 68 76.7846C62.4308 80 54.9539 80 40 80V80C25.0461 80 17.5692 80 12 76.7846C8.35154 74.6782 5.32183 71.6485 3.21539 68C0 62.4308 0 54.9539 0 40V40Z"/>
</clipPath><filter id="filter1_f_973_67540" x="-8.00142" y="-158.546" width="470.545" height="317.091" filterUnits="userSpaceOnUse" color-interpolation-filters="sRGB">
<feFlood flood-opacity="0" result="BackgroundImageFix"/>
<feBlend mode="normal" in="SourceGraphic" in2="BackgroundImageFix" result="shape"/>
<feGaussianBlur stdDeviation="72.7273" result="effect1_foregroundBlur_973_67540"/>
</filter>
<filter id="filter2_ddddddi_973_67540" x="15.4639" y="19.2569" width="48.3417" height="59.3284" filterUnits="userSpaceOnUse" color-interpolation-filters="sRGB">
<feFlood flood-opacity="0" result="BackgroundImageFix"/>
<feColorMatrix in="SourceAlpha" type="matrix" values="0 0 0 0 0 0 0 0 0 0 0 0 0 0 0 0 0 0 127 0" result="hardAlpha"/>
<feOffset dy="11.7606"/>
<feGaussianBlur stdDeviation="5.88032"/>
<feColorMatrix type="matrix" values="0 0 0 0 0 0 0 0 0 0 0 0 0 0 0 0 0 0 0.07 0"/>
<feBlend mode="normal" in2="BackgroundImageFix" result="effect1_dropShadow_973_67540"/>
<feColorMatrix in="SourceAlpha" type="matrix" values="0 0 0 0 0 0 0 0 0 0 0 0 0 0 0 0 0 0 127 0" result="hardAlpha"/>
<feOffset dy="5.88032"/>
<feGaussianBlur stdDeviation="2.94016"/>
<feColorMatrix type="matrix" values="0 0 0 0 0 0 0 0 0 0 0 0 0 0 0 0 0 0 0.07 0"/>
<feBlend mode="normal" in2="effect1_dropShadow_973_67540" result="effect2_dropShadow_973_67540"/>
<feColorMatrix in="SourceAlpha" type="matrix" values="0 0 0 0 0 0 0 0 0 0 0 0 0 0 0 0 0 0 127 0" result="hardAlpha"/>
<feOffset dy="2.94016"/>
<feGaussianBlur stdDeviation="1.47008"/>
<feColorMatrix type="matrix" values="0 0 0 0 0 0 0 0 0 0 0 0 0 0 0 0 0 0 0.07 0"/>
<feBlend mode="normal" in2="effect2_dropShadow_973_67540" result="effect3_dropShadow_973_67540"/>
<feColorMatrix in="SourceAlpha" type="matrix" values="0 0 0 0 0 0 0 0 0 0 0 0 0 0 0 0 0 0 127 0" result="hardAlpha"/>
<feOffset dy="1.47008"/>
<feGaussianBlur stdDeviation="0.735039"/>
<feColorMatrix type="matrix" values="0 0 0 0 0 0 0 0 0 0 0 0 0 0 0 0 0 0 0.07 0"/>
<feBlend mode="normal" in2="effect3_dropShadow_973_67540" result="effect4_dropShadow_973_67540"/>
<feColorMatrix in="SourceAlpha" type="matrix" values="0 0 0 0 0 0 0 0 0 0 0 0 0 0 0 0 0 0 127 0" result="hardAlpha"/>
<feOffset dy="0.735039"/>
<feGaussianBlur stdDeviation="0.36752"/>
<feColorMatrix type="matrix" values="0 0 0 0 0 0 0 0 0 0 0 0 0 0 0 0 0 0 0.07 0"/>
<feBlend mode="normal" in2="effect4_dropShadow_973_67540" result="effect5_dropShadow_973_67540"/>
<feColorMatrix in="SourceAlpha" type="matrix" values="0 0 0 0 0 0 0 0 0 0 0 0 0 0 0 0 0 0 127 0" result="hardAlpha"/>
<feOffset/>
<feGaussianBlur stdDeviation="8.08543"/>
<feComposite in2="hardAlpha" operator="out"/>
<feColorMatrix type="matrix" values="0 0 0 0 1 0 0 0 0 1 0 0 0 0 1 0 0 0 0.25 0"/>
<feBlend mode="normal" in2="effect5_dropShadow_973_67540" result="effect6_dropShadow_973_67540"/>
<feBlend mode="normal" in="SourceGraphic" in2="effect6_dropShadow_973_67540" result="shape"/>
<feColorMatrix in="SourceAlpha" type="matrix" values="0 0 0 0 0 0 0 0 0 0 0 0 0 0 0 0 0 0 127 0" result="hardAlpha"/>
<feOffset dy="2.90909"/>
<feGaussianBlur stdDeviation="10.9091"/>
<feComposite in2="hardAlpha" operator="arithmetic" k2="-1" k3="1"/>
<feColorMatrix type="matrix" values="0 0 0 0 1 0 0 0 0 1 0 0 0 0 1 0 0 0 0.3 0"/>
<feBlend mode="normal" in2="shape" result="effect7_innerShadow_973_67540"/>
</filter>
<filter id="filter3_ddddddi_973_67540" x="4.55569" y="27.9834" width="48.3417" height="50.6013" filterUnits="userSpaceOnUse" color-interpolation-filters="sRGB">
<feFlood flood-opacity="0" result="BackgroundImageFix"/>
<feColorMatrix in="SourceAlpha" type="matrix" values="0 0 0 0 0 0 0 0 0 0 0 0 0 0 0 0 0 0 127 0" result="hardAlpha"/>
<feOffset dy="11.7606"/>
<feGaussianBlur stdDeviation="5.88032"/>
<feColorMatrix type="matrix" values="0 0 0 0 0 0 0 0 0 0 0 0 0 0 0 0 0 0 0.07 0"/>
<feBlend mode="normal" in2="BackgroundImageFix" result="effect1_dropShadow_973_67540"/>
<feColorMatrix in="SourceAlpha" type="matrix" values="0 0 0 0 0 0 0 0 0 0 0 0 0 0 0 0 0 0 127 0" result="hardAlpha"/>
<feOffset dy="5.88032"/>
<feGaussianBlur stdDeviation="2.94016"/>
<feColorMatrix type="matrix" values="0 0 0 0 0 0 0 0 0 0 0 0 0 0 0 0 0 0 0.07 0"/>
<feBlend mode="normal" in2="effect1_dropShadow_973_67540" result="effect2_dropShadow_973_67540"/>
<feColorMatrix in="SourceAlpha" type="matrix" values="0 0 0 0 0 0 0 0 0 0 0 0 0 0 0 0 0 0 127 0" result="hardAlpha"/>
<feOffset dy="2.94016"/>
<feGaussianBlur stdDeviation="1.47008"/>
<feColorMatrix type="matrix" values="0 0 0 0 0 0 0 0 0 0 0 0 0 0 0 0 0 0 0.07 0"/>
<feBlend mode="normal" in2="effect2_dropShadow_973_67540" result="effect3_dropShadow_973_67540"/>
<feColorMatrix in="SourceAlpha" type="matrix" values="0 0 0 0 0 0 0 0 0 0 0 0 0 0 0 0 0 0 127 0" result="hardAlpha"/>
<feOffset dy="1.47008"/>
<feGaussianBlur stdDeviation="0.735039"/>
<feColorMatrix type="matrix" values="0 0 0 0 0 0 0 0 0 0 0 0 0 0 0 0 0 0 0.07 0"/>
<feBlend mode="normal" in2="effect3_dropShadow_973_67540" result="effect4_dropShadow_973_67540"/>
<feColorMatrix in="SourceAlpha" type="matrix" values="0 0 0 0 0 0 0 0 0 0 0 0 0 0 0 0 0 0 127 0" result="hardAlpha"/>
<feOffset dy="0.735039"/>
<feGaussianBlur stdDeviation="0.36752"/>
<feColorMatrix type="matrix" values="0 0 0 0 0 0 0 0 0 0 0 0 0 0 0 0 0 0 0.07 0"/>
<feBlend mode="normal" in2="effect4_dropShadow_973_67540" result="effect5_dropShadow_973_67540"/>
<feColorMatrix in="SourceAlpha" type="matrix" values="0 0 0 0 0 0 0 0 0 0 0 0 0 0 0 0 0 0 127 0" result="hardAlpha"/>
<feOffset/>
<feGaussianBlur stdDeviation="8.08543"/>
<feComposite in2="hardAlpha" operator="out"/>
<feColorMatrix type="matrix" values="0 0 0 0 1 0 0 0 0 1 0 0 0 0 1 0 0 0 0.25 0"/>
<feBlend mode="normal" in2="effect5_dropShadow_973_67540" result="effect6_dropShadow_973_67540"/>
<feBlend mode="normal" in="SourceGraphic" in2="effect6_dropShadow_973_67540" result="shape"/>
<feColorMatrix in="SourceAlpha" type="matrix" values="0 0 0 0 0 0 0 0 0 0 0 0 0 0 0 0 0 0 127 0" result="hardAlpha"/>
<feOffset dy="2.90909"/>
<feGaussianBlur stdDeviation="10.9091"/>
<feComposite in2="hardAlpha" operator="arithmetic" k2="-1" k3="1"/>
<feColorMatrix type="matrix" values="0 0 0 0 1 0 0 0 0 1 0 0 0 0 1 0 0 0 0.3 0"/>
<feBlend mode="normal" in2="shape" result="effect7_innerShadow_973_67540"/>
</filter>
<filter id="filter4_ddddddi_973_67540" x="4.55569" y="8.34671" width="70.1599" height="70.2375" filterUnits="userSpaceOnUse" color-interpolation-filters="sRGB">
<feFlood flood-opacity="0" result="BackgroundImageFix"/>
<feColorMatrix in="SourceAlpha" type="matrix" values="0 0 0 0 0 0 0 0 0 0 0 0 0 0 0 0 0 0 127 0" result="hardAlpha"/>
<feOffset dy="11.7606"/>
<feGaussianBlur stdDeviation="5.88032"/>
<feColorMatrix type="matrix" values="0 0 0 0 0 0 0 0 0 0 0 0 0 0 0 0 0 0 0.07 0"/>
<feBlend mode="normal" in2="BackgroundImageFix" result="effect1_dropShadow_973_67540"/>
<feColorMatrix in="SourceAlpha" type="matrix" values="0 0 0 0 0 0 0 0 0 0 0 0 0 0 0 0 0 0 127 0" result="hardAlpha"/>
<feOffset dy="5.88032"/>
<feGaussianBlur stdDeviation="2.94016"/>
<feColorMatrix type="matrix" values="0 0 0 0 0 0 0 0 0 0 0 0 0 0 0 0 0 0 0.07 0"/>
<feBlend mode="normal" in2="effect1_dropShadow_973_67540" result="effect2_dropShadow_973_67540"/>
<feColorMatrix in="SourceAlpha" type="matrix" values="0 0 0 0 0 0 0 0 0 0 0 0 0 0 0 0 0 0 127 0" result="hardAlpha"/>
<feOffset dy="2.94016"/>
<feGaussianBlur stdDeviation="1.47008"/>
<feColorMatrix type="matrix" values="0 0 0 0 0 0 0 0 0 0 0 0 0 0 0 0 0 0 0.07 0"/>
<feBlend mode="normal" in2="effect2_dropShadow_973_67540" result="effect3_dropShadow_973_67540"/>
<feColorMatrix in="SourceAlpha" type="matrix" values="0 0 0 0 0 0 0 0 0 0 0 0 0 0 0 0 0 0 127 0" result="hardAlpha"/>
<feOffset dy="1.47008"/>
<feGaussianBlur stdDeviation="0.735039"/>
<feColorMatrix type="matrix" values="0 0 0 0 0 0 0 0 0 0 0 0 0 0 0 0 0 0 0.07 0"/>
<feBlend mode="normal" in2="effect3_dropShadow_973_67540" result="effect4_dropShadow_973_67540"/>
<feColorMatrix in="SourceAlpha" type="matrix" values="0 0 0 0 0 0 0 0 0 0 0 0 0 0 0 0 0 0 127 0" result="hardAlpha"/>
<feOffset dy="0.735039"/>
<feGaussianBlur stdDeviation="0.36752"/>
<feColorMatrix type="matrix" values="0 0 0 0 0 0 0 0 0 0 0 0 0 0 0 0 0 0 0.07 0"/>
<feBlend mode="normal" in2="effect4_dropShadow_973_67540" result="effect5_dropShadow_973_67540"/>
<feColorMatrix in="SourceAlpha" type="matrix" values="0 0 0 0 0 0 0 0 0 0 0 0 0 0 0 0 0 0 127 0" result="hardAlpha"/>
<feOffset/>
<feGaussianBlur stdDeviation="8.08543"/>
<feComposite in2="hardAlpha" operator="out"/>
<feColorMatrix type="matrix" values="0 0 0 0 1 0 0 0 0 1 0 0 0 0 1 0 0 0 0.25 0"/>
<feBlend mode="normal" in2="effect5_dropShadow_973_67540" result="effect6_dropShadow_973_67540"/>
<feBlend mode="normal" in="SourceGraphic" in2="effect6_dropShadow_973_67540" result="shape"/>
<feColorMatrix in="SourceAlpha" type="matrix" values="0 0 0 0 0 0 0 0 0 0 0 0 0 0 0 0 0 0 127 0" result="hardAlpha"/>
<feOffset dy="2.90909"/>
<feGaussianBlur stdDeviation="10.9091"/>
<feComposite in2="hardAlpha" operator="arithmetic" k2="-1" k3="1"/>
<feColorMatrix type="matrix" values="0 0 0 0 1 0 0 0 0 1 0 0 0 0 1 0 0 0 0.3 0"/>
<feBlend mode="normal" in2="shape" result="effect7_innerShadow_973_67540"/>
</filter>
<linearGradient id="paint0_linear_973_67540" x1="40" y1="18.8889" x2="40" y2="110" gradientUnits="userSpaceOnUse">
<stop stop-color="white" stop-opacity="0"/>
<stop offset="1" stop-color="#EAE9ED"/>
</linearGradient>
<radialGradient id="paint1_radial_973_67540" cx="0" cy="0" r="1" gradientUnits="userSpaceOnUse" gradientTransform="translate(12.48) scale(21.6 75.0997)">
<stop stop-color="#EAE9ED"/>
<stop offset="1" stop-opacity="0"/>
</radialGradient>
<linearGradient id="paint2_linear_973_67540" x1="36.4421" y1="55.9407" x2="26.1145" y2="51.8252" gradientUnits="userSpaceOnUse">
<stop stop-color="#E9AF03"/>
<stop offset="1" stop-color="#FCEA4C"/>
</linearGradient>
<linearGradient id="paint3_linear_973_67540" x1="40.6079" y1="37.0152" x2="42.9993" y2="40.9976" gradientUnits="userSpaceOnUse">
<stop stop-color="#FFF0F0" stop-opacity="0.5"/>
<stop offset="1" stop-color="#999090" stop-opacity="0"/>
</linearGradient>
<linearGradient id="paint4_linear_973_67540" x1="25.5339" y1="55.5504" x2="17.632" y2="49.8824" gradientUnits="userSpaceOnUse">
<stop stop-color="#E9AF03"/>
<stop offset="1" stop-color="#FCEA4C"/>
</linearGradient>
<linearGradient id="paint5_linear_973_67540" x1="29.6997" y1="45.0362" x2="30.6034" y2="47.745" gradientUnits="userSpaceOnUse">
<stop stop-color="#FFF0F0" stop-opacity="0.5"/>
<stop offset="1" stop-color="#999090" stop-opacity="0"/>
</linearGradient>
<linearGradient id="paint6_linear_973_67540" x1="32.0894" y1="56.4267" x2="11.3911" y2="43.8937" gradientUnits="userSpaceOnUse">
<stop stop-color="#E9AF03"/>
<stop offset="1" stop-color="#FCEA4C"/>
</linearGradient>
<linearGradient id="paint7_linear_973_67540" x1="41.9357" y1="26.987" x2="44.8168" y2="34.2771" gradientUnits="userSpaceOnUse">
<stop stop-color="#FFF0F0" stop-opacity="0.5"/>
<stop offset="1" stop-color="#999090" stop-opacity="0"/>
</linearGradient>
<radialGradient id="paint8_radial_973_67540" cx="0" cy="0" r="1" gradientUnits="userSpaceOnUse" gradientTransform="translate(14.8454 10.7217) rotate(65.3326) scale(61.2604)">
<stop stop-color="white"/>
<stop offset="1" stop-color="white" stop-opacity="0"/>
</radialGradient>
<clipPath id="clip0_973_67540">
<path d="M0 40C0 25.0461 0 17.5692 3.21539 12C5.32183 8.35154 8.35154 5.32183 12 3.21539C17.5692 0 25.0461 0 40 0V0C54.9539 0 62.4308 0 68 3.21539C71.6485 5.32183 74.6782 8.35154 76.7846 12C80 17.5692 80 25.0461 80 40V40C80 54.9539 80 62.4308 76.7846 68C74.6782 71.6485 71.6485 74.6782 68 76.7846C62.4308 80 54.9539 80 40 80V80C25.0461 80 17.5692 80 12 76.7846C8.35154 74.6782 5.32183 71.6485 3.21539 68C0 62.4308 0 54.9539 0 40V40Z" fill="white"/>
</clipPath>
</defs>
</svg>
