<svg width="17" height="17" viewBox="0 0 17 17" fill="none" xmlns="http://www.w3.org/2000/svg">
<path d="M8.4995 12.5566L12.1333 14.7914C12.3259 14.9083 12.5703 14.8977 12.7523 14.7645C12.9344 14.6313 13.018 14.4018 12.9648 14.1822L11.9767 10.013L15.2103 7.22358C15.3788 7.07554 15.4433 6.84179 15.3746 6.62858C15.3052 6.41467 15.116 6.26308 14.8922 6.24254L10.6486 5.89687L9.01375 1.93942C8.92805 1.73046 8.72546 1.59375 8.4995 1.59375C8.27425 1.59375 8.07096 1.73046 7.98525 1.93942L6.35042 5.89687L2.1068 6.24254C1.88155 6.26167 1.6903 6.41467 1.62088 6.62929C1.55146 6.84392 1.61805 7.07979 1.78875 7.22712L5.0223 10.0158L4.03417 14.1822C3.98105 14.4018 4.06463 14.6313 4.24667 14.7645C4.42871 14.8977 4.67309 14.9083 4.86575 14.7914L8.4995 12.5566Z" fill="#FECD17"/>
<path d="M8.4995 12.5566L12.1333 14.7914C12.3259 14.9083 12.5703 14.8977 12.7523 14.7645C12.9344 14.6313 13.018 14.4018 12.9648 14.1822L11.9767 10.013L15.2103 7.22358C15.3788 7.07554 15.4433 6.84179 15.3746 6.62858C15.3052 6.41467 15.116 6.26308 14.8922 6.24254L10.6486 5.89687L9.01375 1.93942C8.92805 1.73046 8.72546 1.59375 8.4995 1.59375C8.27425 1.59375 8.07096 1.73046 7.98525 1.93942L6.35042 5.89687L2.1068 6.24254C1.88155 6.26167 1.6903 6.41467 1.62088 6.62929C1.55146 6.84392 1.61805 7.07979 1.78875 7.22712L5.0223 10.0158L4.03417 14.1822C3.98105 14.4018 4.06463 14.6313 4.24667 14.7645C4.42871 14.8977 4.67309 14.9083 4.86575 14.7914L8.4995 12.5566Z" stroke="#FFD21D" stroke-width="1.0625" stroke-linecap="round" stroke-linejoin="round"/>
</svg>
