<svg width="256" height="256" viewBox="0 0 256 256" fill="none" xmlns="http://www.w3.org/2000/svg">
<rect width="256" height="256" rx="20" fill="black"/>
<path d="M136.213 51.1399C136.213 49.8918 137.73 49.2767 138.599 50.1726L206.131 119.806C206.658 120.35 206.953 121.078 206.953 121.835V206.572C206.953 207.82 205.435 208.435 204.567 207.539L137.035 137.905C136.507 137.362 136.213 136.634 136.213 135.877V51.1399Z" fill="white" fill-opacity="0.2"/>
<path d="M50 51.1399C50 49.8918 51.5178 49.2767 52.3867 50.1726L119.919 119.806C120.446 120.35 120.741 121.078 120.741 121.835V206.572C120.741 207.82 119.223 208.435 118.354 207.539L50.8222 137.905C50.2949 137.362 50 136.634 50 135.877V51.1399Z" fill="white" fill-opacity="0.2"/>
<path d="M92.3798 49.4282C92.3798 48.1801 93.8976 47.565 94.7664 48.461L162.18 117.973C162.783 118.595 163.121 119.427 163.121 120.293V204.86C163.121 206.108 161.603 206.723 160.734 205.827L93.2019 136.194C92.6746 135.65 92.3798 134.922 92.3798 134.165V49.4282Z" fill="white"/>
</svg>
