<svg width="88" height="26" viewBox="0 0 88 26" fill="none" xmlns="http://www.w3.org/2000/svg">
<path d="M36.7891 18.582C35.6901 18.582 34.724 18.332 33.8906 17.832C33.0573 17.332 32.4089 16.6315 31.9453 15.7305C31.4818 14.8294 31.25 13.7799 31.25 12.582C31.25 11.3424 31.4896 10.2747 31.9688 9.37891C32.4479 8.47786 33.1016 7.78516 33.9297 7.30078C34.763 6.8112 35.7031 6.56641 36.75 6.56641C37.6406 6.56641 38.4531 6.73828 39.1875 7.08203C39.9271 7.42578 40.5339 7.90495 41.0078 8.51953C41.4818 9.12891 41.7682 9.83984 41.8672 10.6523H39.4297C39.2995 10.0586 39.0052 9.58464 38.5469 9.23047C38.0938 8.87109 37.5182 8.69141 36.8203 8.69141C35.8411 8.69141 35.0703 9.04036 34.5078 9.73828C33.9505 10.4362 33.6719 11.3841 33.6719 12.582C33.6719 13.7747 33.9531 14.7201 34.5156 15.418C35.0833 16.1107 35.862 16.457 36.8516 16.457C37.6536 16.457 38.3073 16.2357 38.8125 15.793C39.3229 15.3451 39.5833 14.7591 39.5938 14.0352H37.0547V12.207H41.9453V13.6914C41.9453 14.6549 41.724 15.5039 41.2812 16.2383C40.8438 16.9727 40.237 17.5482 39.4609 17.9648C38.6849 18.3763 37.7943 18.582 36.7891 18.582ZM47.1797 18.582C46.3464 18.582 45.6146 18.4023 44.9844 18.043C44.3594 17.6836 43.8698 17.1836 43.5156 16.543C43.1667 15.8971 42.9922 15.1419 42.9922 14.2773C42.9922 13.4128 43.1667 12.6576 43.5156 12.0117C43.8698 11.3659 44.3594 10.8633 44.9844 10.5039C45.6146 10.1393 46.3464 9.95703 47.1797 9.95703C48.0182 9.95703 48.75 10.1393 49.375 10.5039C50.0052 10.8633 50.4948 11.3659 50.8438 12.0117C51.1979 12.6576 51.375 13.4128 51.375 14.2773C51.375 15.1367 51.1979 15.8893 50.8438 16.5352C50.4948 17.181 50.0052 17.6836 49.375 18.043C48.75 18.4023 48.0182 18.582 47.1797 18.582ZM47.1797 16.7148C47.7422 16.7148 48.1953 16.5013 48.5391 16.0742C48.8828 15.6419 49.0547 15.043 49.0547 14.2773C49.0547 13.5065 48.8828 12.9049 48.5391 12.4727C48.1953 12.0404 47.7422 11.8242 47.1797 11.8242C46.6224 11.8242 46.1719 12.0404 45.8281 12.4727C45.4844 12.9049 45.3125 13.5065 45.3125 14.2773C45.3125 15.043 45.4844 15.6419 45.8281 16.0742C46.1719 16.5013 46.6224 16.7148 47.1797 16.7148ZM54.9531 6.75391V18.3945H52.6484V6.75391H54.9531ZM59.7969 18.5664C59.0781 18.5664 58.4505 18.3867 57.9141 18.0273C57.3776 17.668 56.9609 17.1654 56.6641 16.5195C56.3724 15.8737 56.2266 15.1211 56.2266 14.2617C56.2266 13.418 56.375 12.6732 56.6719 12.0273C56.974 11.3815 57.3906 10.8789 57.9219 10.5195C58.4583 10.1549 59.0781 9.97266 59.7812 9.97266C60.3125 9.97266 60.7839 10.082 61.1953 10.3008C61.6068 10.5143 61.9453 10.8424 62.2109 11.2852H62.2188V6.75391H64.5156V18.3945H62.25V17.1289H62.2422C62.0026 17.6081 61.6693 17.9674 61.2422 18.207C60.8203 18.4466 60.3385 18.5664 59.7969 18.5664ZM60.3906 16.6914C60.974 16.6914 61.4427 16.4727 61.7969 16.0352C62.151 15.5924 62.3281 15.0013 62.3281 14.2617C62.3281 13.5273 62.151 12.9388 61.7969 12.4961C61.4427 12.0534 60.974 11.832 60.3906 11.832C59.8333 11.832 59.3854 12.0456 59.0469 12.4727C58.7135 12.8945 58.5469 13.4909 58.5469 14.2617C58.5469 15.0326 58.7135 15.6315 59.0469 16.0586C59.3854 16.4805 59.8333 16.6914 60.3906 16.6914ZM66.1484 18.3945V10.1445H68.4531V18.3945H66.1484ZM67.2969 9.10547C66.9167 9.10547 66.6016 8.99089 66.3516 8.76172C66.1016 8.52734 65.9766 8.23307 65.9766 7.87891C65.9766 7.52474 66.1016 7.23307 66.3516 7.00391C66.6016 6.76953 66.9167 6.65234 67.2969 6.65234C67.6719 6.65234 67.9844 6.76953 68.2344 7.00391C68.4844 7.23307 68.6094 7.52474 68.6094 7.87891C68.6094 8.23307 68.4844 8.52734 68.2344 8.76172C67.9844 8.99089 67.6719 9.10547 67.2969 9.10547ZM74.8906 10.1445V11.9492H73.2031V18.3945H70.9062V11.9492H69.4141V10.1445H70.9062V9.07422C70.9062 7.52734 71.7995 6.75391 73.5859 6.75391H74.8906V8.55859H74.1094C73.776 8.55859 73.5417 8.62891 73.4062 8.76953C73.2708 8.90495 73.2031 9.13672 73.2031 9.46484V10.1445H74.8906ZM76.3047 21.6602V19.8398H77.3516C77.6276 19.8398 77.8307 19.7721 77.9609 19.6367C78.0964 19.5065 78.2188 19.2826 78.3281 18.9648L78.5547 18.3633L75.3828 10.1445H77.7969L79.1797 14.2227C79.2734 14.5195 79.3646 14.8164 79.4531 15.1133C79.5469 15.4102 79.638 15.707 79.7266 16.0039C79.8151 15.707 79.9062 15.4102 80 15.1133C80.0938 14.8112 80.1875 14.5143 80.2812 14.2227L81.6719 10.1445H84.0625L80.4297 19.668C80.1693 20.3555 79.8307 20.8581 79.4141 21.1758C78.9974 21.4987 78.4688 21.6602 77.8281 21.6602H76.3047ZM84.9609 18.5352C84.5964 18.5352 84.2839 18.4076 84.0234 18.1523C83.7682 17.8919 83.6406 17.5768 83.6406 17.207C83.6406 16.8424 83.7682 16.5299 84.0234 16.2695C84.2839 16.0091 84.5964 15.8789 84.9609 15.8789C85.3307 15.8789 85.6432 16.0091 85.8984 16.2695C86.1589 16.5299 86.2891 16.8424 86.2891 17.207C86.2891 17.5768 86.1589 17.8919 85.8984 18.1523C85.6432 18.4076 85.3307 18.5352 84.9609 18.5352Z" fill="white"/>
<path d="M13.6677 3.69956C13.6677 2.4515 15.1855 1.83639 16.0544 2.73231L24.0606 10.9876C24.5878 11.5313 24.8827 12.2589 24.8827 13.0163V22.5718C24.8827 23.8199 23.3649 24.435 22.496 23.539L14.4899 15.2837C13.9626 14.74 13.6677 14.0124 13.6677 13.255V3.69956Z" fill="white" fill-opacity="0.2"/>
<path d="M0 3.69956C0 2.4515 1.5178 1.83639 2.38668 2.73231L10.3928 10.9876C10.9201 11.5313 11.215 12.2589 11.215 13.0163V22.5718C11.215 23.8199 9.6972 24.435 8.82832 23.539L0.822154 15.2837C0.294879 14.74 0 14.0124 0 13.255V3.69956Z" fill="white" fill-opacity="0.2"/>
<path d="M6.71875 3.4282C6.71875 2.18015 8.23655 1.56503 9.10543 2.46096L16.9934 10.5945C17.5965 11.2163 17.9337 12.0485 17.9337 12.9147V22.3004C17.9337 23.5485 16.416 24.1636 15.5471 23.2677L7.5409 15.0124C7.01363 14.4687 6.71875 13.7411 6.71875 12.9837V3.4282Z" fill="white"/>
</svg>
